<svg xmlns="http://www.w3.org/2000/svg" viewBox="0 0 263.14308 396.30405">
  <title>logo_normal</title>
  <g id="Layer_2" data-name="Layer 2">
    <g id="Rulers">
      <g>
        <polygon points="0 51.828 153.439 0 263.143 66.828 263.143 344.692 109.605 396.304 0 329.536 0 51.828" fill="#1d1e1c"/>
        <path d="M161.4471,153.77222l-6.39534,2.15891Z" fill="#121617"/>
        <g>
          <polygon points="17.541 64.508 17.541 117.609 109.64 173.713 109.64 120.593 17.541 64.508" fill="#b1b1b1"/>
          <polygon points="148.379 107.52 109.64 120.593 109.64 173.713 148.379 160.639 148.379 123.905 148.379 107.52" fill="#e6e4e4"/>
          <polygon points="193.665 92.217 161.467 103.083 161.467 123.898 161.467 156.202 190.676 146.345 190.676 146.337 193.665 145.327 193.665 123.898 193.665 92.217" fill="#e6e4e4"/>
          <polygon points="245.568 74.677 206.778 87.768 206.794 87.777 206.794 123.872 206.794 140.872 245.568 127.787 245.568 74.677" fill="#e6e4e4"/>
          <polygon points="87.009 70.127 99.998 65.738 161.48 103.093 193.665 92.217 132.333 54.847 145.322 50.458 206.765 87.79 245.568 74.677 153.474 18.52 17.541 64.508 109.64 120.612 148.379 107.52 87.009 70.127" fill="#fff"/>
          <polygon points="192.509 163.625 192.509 163.633 109.641 191.599 109.641 245.621 148.507 232.504 193.703 217.252 193.703 235.119 192.509 235.523 192.509 235.524 109.641 263.489 109.641 377.784 245.603 331.891 245.603 284.344 244.409 284.747 161.54 312.713 161.54 294.845 200.406 281.729 245.603 266.476 245.603 145.707 192.509 163.625" fill="#fff"/>
          <polygon points="17.541 321.68 109.641 377.784 109.641 263.489 17.541 207.386 17.541 321.68" fill="#b1b1b1"/>
          <polygon points="17.54 135.495 17.54 189.518 109.641 245.621 109.641 191.599 17.54 135.495" fill="#b1b1b1"/>
        </g>
      </g>
    </g>
  </g>
</svg>
