<?xml version="1.0" encoding="UTF-8" standalone="no"?>
<!DOCTYPE svg PUBLIC "-//W3C//DTD SVG 1.1//EN" "http://www.w3.org/Graphics/SVG/1.1/DTD/svg11.dtd">
<svg width="100%" height="100%" viewBox="0 0 512 512" version="1.1" xmlns="http://www.w3.org/2000/svg" xmlns:xlink="http://www.w3.org/1999/xlink" xml:space="preserve" xmlns:serif="http://www.serif.com/" style="fill-rule:evenodd;clip-rule:evenodd;stroke-linejoin:round;stroke-miterlimit:1.41421;">
    <g transform="matrix(1,0,0,1,0,-123.285)">
        <g id="Layer-1" serif:id="Layer 1">
            <path d="M382.159,486.216L262.253,486.216L262.253,366.309L382.159,366.309L382.159,486.216ZM174.835,353.804L218.05,338.057L249.747,306.361L249.747,353.804L174.835,353.804ZM249.747,486.216L129.841,486.216L129.841,219.184L249.747,219.184L249.747,243.772L190.312,303.208L186.756,306.768L169.614,353.804L169.564,353.804L169.564,366.309L249.747,366.309L249.747,486.216ZM206.975,330.54L190.594,336.511L188.303,334.221L194.274,317.84L206.975,330.54ZM354.304,186.454L216.328,324.431L200.384,308.487L338.359,170.511L354.304,186.454ZM350.17,158.701L366.112,174.645L362.007,178.751L346.063,162.807L350.17,158.701ZM371.947,152.867C375.699,156.619 376.248,162.38 373.596,166.72L358.094,151.219C362.434,148.566 368.193,149.115 371.947,152.867M262.253,353.804L262.253,293.855L364.349,191.762L379.622,176.487C388.25,167.859 388.25,153.82 379.622,145.192C370.994,136.564 356.955,136.564 348.328,145.192L262.253,231.267L262.253,206.679L117.335,206.679L117.335,498.721L394.665,498.721L394.665,353.804L262.253,353.804Z" style="fill:white;fill-rule:nonzero;"/>
        </g>
    </g>
</svg>
