<?xml version="1.0" encoding="UTF-8" standalone="no"?>
<!DOCTYPE svg PUBLIC "-//W3C//DTD SVG 1.1//EN" "http://www.w3.org/Graphics/SVG/1.1/DTD/svg11.dtd">
<svg width="100%" height="100%" viewBox="0 0 512 512" version="1.1" xmlns="http://www.w3.org/2000/svg" xmlns:xlink="http://www.w3.org/1999/xlink" xml:space="preserve" xmlns:serif="http://www.serif.com/" style="fill-rule:evenodd;clip-rule:evenodd;stroke-linejoin:round;stroke-miterlimit:1.41421;">
    <g transform="matrix(1,0,0,1,370.327,94.1776)">
        <g id="Layer-1" serif:id="Layer 1">
            <path d="M0,202.755C6.623,202.755 13.246,202.704 19.868,202.784C21.989,202.811 22.834,202.052 22.799,199.892C22.709,194.282 22.72,188.67 22.796,183.061C22.823,181.011 22.19,180.034 19.97,180.044C6.725,180.101 -6.521,180.093 -19.766,180.051C-21.761,180.044 -22.573,180.807 -22.55,182.821C-22.483,188.524 -22.466,194.228 -22.559,199.929C-22.595,202.126 -21.677,202.809 -19.591,202.784C-13.062,202.707 -6.53,202.756 0,202.755M0.171,155.208C6.701,155.208 13.232,155.144 19.761,155.243C22.045,155.277 22.846,154.419 22.804,152.167C22.701,146.651 22.706,141.13 22.802,135.613C22.841,133.403 22.113,132.477 19.795,132.489C6.644,132.558 -6.508,132.549 -19.659,132.496C-21.813,132.487 -22.588,133.335 -22.556,135.448C-22.474,140.873 -22.427,146.303 -22.576,151.725C-22.648,154.316 -21.847,155.325 -19.142,155.26C-12.707,155.105 -6.267,155.21 0.171,155.208M0.204,107.715C6.735,107.715 13.267,107.672 19.796,107.74C21.852,107.761 22.832,107.111 22.798,104.897C22.709,99.196 22.723,93.491 22.793,87.79C22.817,85.793 22.066,84.999 20.042,85.006C6.797,85.054 -6.448,85.061 -19.693,85C-21.881,84.99 -22.589,85.864 -22.557,87.958C-22.474,93.476 -22.451,98.997 -22.567,104.513C-22.617,106.88 -21.808,107.796 -19.387,107.755C-12.857,107.644 -6.326,107.717 0.204,107.715M0.239,60.169C6.677,60.169 13.116,60.102 19.552,60.204C21.893,60.24 22.865,59.482 22.81,57.036C22.686,51.521 22.697,45.999 22.806,40.483C22.851,38.193 21.98,37.435 19.731,37.446C6.673,37.515 -6.388,37.512 -19.447,37.448C-21.654,37.438 -22.61,38.121 -22.564,40.449C-22.454,45.965 -22.446,51.487 -22.568,57.003C-22.622,59.41 -21.73,60.244 -19.35,60.205C-12.822,60.099 -6.291,60.169 0.239,60.169M-151.317,276.35L-38.283,276.35C-21.518,276.35 -4.751,276.308 12.015,276.393C14.591,276.405 15.644,275.692 15.555,272.962C15.38,267.624 15.513,262.277 15.5,256.934C15.492,253.292 15.399,253.191 11.794,253.19C-4.696,253.181 -21.186,253.184 -37.676,253.192C-38.501,253.192 -39.511,252.99 -40.121,253.377C-42.515,254.894 -42.461,253.309 -42.462,251.693C-42.468,245.428 -42.462,239.164 -42.469,232.9C-42.473,228.787 -42.479,228.778 -46.61,228.777C-62.915,228.774 -79.221,228.779 -95.525,228.773C-99.454,228.772 -99.49,228.726 -99.494,224.726C-99.501,219.014 -99.489,213.302 -99.499,207.591C-99.505,203.96 -99.517,203.945 -103.23,203.944C-119.905,203.939 -136.579,203.948 -153.252,203.935C-156.604,203.932 -156.894,203.646 -156.906,200.321C-156.93,193.412 -156.908,186.503 -156.917,179.594C-156.923,175.795 -156.934,175.784 -160.788,175.782C-177.37,175.777 -193.952,175.732 -210.534,175.828C-213.211,175.845 -214.055,174.946 -213.991,172.322C-213.841,166.245 -213.938,160.163 -213.946,154.083C-213.951,150.283 -213.959,150.27 -217.808,150.269C-232.64,150.263 -247.471,150.271 -262.303,150.262C-266.289,150.259 -266.458,150.074 -266.466,146.006C-266.475,141.215 -266.616,136.419 -266.414,131.637C-266.292,128.786 -267.345,128.024 -270.079,128.044C-284.726,128.152 -299.373,128.093 -314.021,128.096C-318.239,128.097 -318.244,128.104 -318.244,132.401C-318.246,178.923 -318.245,225.444 -318.245,271.966C-318.245,272.703 -318.214,273.441 -318.234,274.177C-318.273,275.698 -317.498,276.352 -316.03,276.333C-315.018,276.321 -314.004,276.349 -312.991,276.349C-259.1,276.35 -205.208,276.35 -151.317,276.35M-86.041,-78.742C-27.532,-78.742 30.976,-78.742 89.484,-78.741C94.168,-78.741 94.172,-78.738 94.172,-74.033L94.172,276.188C94.172,280.787 94.167,280.79 89.643,280.792C64.766,280.805 39.888,280.699 15.012,280.845C-96.191,281.498 -207.395,281.16 -318.598,281.24C-322.682,281.243 -322.824,281.096 -322.824,277.073C-322.828,227.134 -322.828,177.194 -322.823,127.255C-322.823,123.387 -322.649,123.207 -318.768,123.205C-302.92,123.194 -287.072,123.201 -271.224,123.199C-266.472,123.198 -266.469,123.195 -266.469,118.563C-266.468,81.339 -266.468,44.115 -266.468,6.891C-266.468,2.02 -266.466,2.017 -261.68,2.016C-165.763,2.016 -69.847,2.016 26.07,2.016C30.983,2.016 30.984,2.014 30.984,-2.941C30.985,-12.062 30.987,-21.184 30.983,-30.306C30.982,-34.345 30.976,-34.351 26.818,-34.351C-68.729,-34.353 -164.277,-34.348 -259.826,-34.361C-267.392,-34.362 -266.43,-33.555 -266.458,-40.982C-266.499,-52.131 -266.472,-63.28 -266.466,-74.429C-266.463,-78.681 -266.405,-78.739 -262.118,-78.74C-203.425,-78.743 -144.733,-78.742 -86.041,-78.742" style="fill:white;fill-rule:nonzero;"/>
        </g>
    </g>
</svg>
