<?xml version="1.0" encoding="UTF-8" standalone="no"?>
<!DOCTYPE svg PUBLIC "-//W3C//DTD SVG 1.1//EN" "http://www.w3.org/Graphics/SVG/1.1/DTD/svg11.dtd">
<svg width="100%" height="100%" viewBox="0 0 512 512" version="1.1" xmlns="http://www.w3.org/2000/svg" xmlns:xlink="http://www.w3.org/1999/xlink" xml:space="preserve" xmlns:serif="http://www.serif.com/" style="fill-rule:evenodd;clip-rule:evenodd;stroke-linejoin:round;stroke-miterlimit:1.41421;">
    <g id="Layer-1" serif:id="Layer 1">
        <g transform="matrix(1,0,0,1,405.658,151.706)">
            <path d="M0,34.514L0,90.987C0,98.112 -5.829,103.921 -12.955,103.921L-70.113,103.921C-71.156,103.921 -72.165,104.327 -72.859,105.105C-73.72,106.07 -74.763,107.697 -75.293,110.241C-75.607,111.747 -74.905,113.347 -73.567,114.106C-65.163,118.871 -59.668,128.221 -60.527,138.784C-61.531,151.266 -71.732,161.408 -84.23,162.381C-99.86,163.597 -112.921,150.841 -112.1,135.181C-111.567,125.404 -105.41,116.905 -96.805,113.028L-96.805,113.013C-96.771,112.47 -96.675,111.697 -96.688,110.816C-96.719,108.892 -97.121,106.467 -98.699,104.896C-99.365,104.234 -100.312,103.921 -101.252,103.921L-160.372,103.921C-167.497,103.921 -173.327,98.091 -173.327,90.965L-173.327,76.172C-173.327,73.958 -171.426,72.217 -169.225,72.45C-158.834,73.548 -147.594,71.685 -135.992,66.391C-128.592,63.014 -122.319,57.418 -118.15,50.432C-92.544,7.525 -122.834,-36.718 -163.444,-36.718C-165.4,-36.718 -167.331,-36.616 -169.233,-36.415C-171.431,-36.182 -173.327,-37.928 -173.327,-40.138L-173.327,-56.451C-173.327,-63.577 -167.497,-69.407 -160.372,-69.407L-102.073,-69.407C-101.03,-69.407 -100.021,-69.813 -99.327,-70.592C-98.467,-71.557 -97.424,-73.183 -96.894,-75.727C-96.579,-77.233 -97.281,-78.834 -98.619,-79.592C-107.023,-84.357 -112.519,-93.707 -111.659,-104.27C-110.655,-116.753 -100.453,-126.894 -87.956,-127.867C-72.326,-129.083 -59.266,-116.327 -60.086,-100.667C-60.577,-91.643 -65.862,-83.707 -73.44,-79.49C-74.676,-78.803 -75.533,-77.568 -75.497,-76.155C-75.449,-74.258 -75.027,-71.919 -73.488,-70.386C-72.822,-69.721 -71.874,-69.407 -70.933,-69.407L-12.955,-69.407C-5.829,-69.407 0,-63.577 0,-56.451L0,34.514Z" style="fill:white;fill-rule:nonzero;"/>
        </g>
        <g opacity="0.470001">
            <g>
                <clipPath id="_clip1">
                    <rect x="106.341" y="86.668" width="180.011" height="297.091" clip-rule="nonzero"/>
                </clipPath>
                <g clip-path="url(#_clip1)">
                    <g transform="matrix(1,0,0,1,170.931,318.534)">
                        <path d="M0,37.64C-0.075,37.64 -0.15,37.639 -0.225,37.632C-2.066,37.51 -3.461,35.918 -3.337,34.077C-2.679,24.172 3.283,15.058 12.044,10.322C12.023,8.951 11.773,7.45 11.008,6.684L-5.675,6.684C-7.521,6.684 -9.017,5.188 -9.017,3.342C-9.017,1.496 -7.521,0 -5.675,0L12.005,0C12.512,0 13.013,0.117 13.47,0.338C17.39,2.25 19.304,6.911 18.594,12.807C18.465,13.973 17.73,15.008 16.646,15.495C9.1,18.896 3.874,26.364 3.331,34.52C3.214,36.286 1.744,37.64 0,37.64" style="fill:white;fill-rule:nonzero;"/>
                    </g>
                    <g transform="matrix(1,0,0,1,111.086,284.28)">
                        <path d="M0,36.604C-1.111,36.604 -2.198,36.051 -2.833,35.04C-4.084,33.048 -4.745,30.752 -4.745,28.398L-4.745,5.531C-4.745,4.539 -4.305,3.597 -3.541,2.962C-2.779,2.326 -1.78,2.062 -0.796,2.245C7.568,3.791 16.354,3.21 25.318,0.516C27.095,0 28.951,0.99 29.481,2.757C30.011,4.526 29.008,6.389 27.241,6.919C18.636,9.5 10.145,10.333 1.938,9.405L1.938,28.398C1.938,29.493 2.246,30.56 2.826,31.486C3.809,33.047 3.337,35.111 1.774,36.092C1.222,36.44 0.607,36.604 0,36.604" style="fill:white;fill-rule:nonzero;"/>
                    </g>
                    <g transform="matrix(1,0,0,1,158.935,252.752)">
                        <path d="M0,-51.459C-0.875,-51.459 -1.75,-51.8 -2.405,-52.48C-3.079,-53.179 -3.774,-53.859 -4.486,-54.519C-5.84,-55.773 -5.92,-57.887 -4.666,-59.241C-3.411,-60.599 -1.296,-60.674 0.057,-59.42C0.86,-58.676 1.643,-57.911 2.405,-57.122C3.686,-55.793 3.648,-53.678 2.32,-52.396C1.672,-51.771 0.835,-51.459 0,-51.459M10.805,9.215C10.388,9.215 9.962,9.135 9.551,8.968C7.84,8.272 7.017,6.324 7.71,4.614C10.572,-2.435 12.022,-9.632 12.022,-16.778C12.022,-19.727 11.771,-22.682 11.277,-25.563C10.964,-27.383 12.184,-29.111 14.003,-29.422C15.816,-29.753 17.549,-28.514 17.863,-26.696C18.422,-23.44 18.707,-20.104 18.707,-16.778C18.707,-8.768 17.091,-0.725 13.904,7.127C13.377,8.426 12.125,9.215 10.805,9.215" style="fill:white;fill-rule:nonzero;"/>
                    </g>
                    <g transform="matrix(1,0,0,1,137.292,150.446)">
                        <path d="M0,37.07C-0.359,37.07 -0.723,37.011 -1.082,36.889C-9.353,34.06 -18.458,33.403 -27.002,34.975C-27.979,35.156 -28.983,34.893 -29.747,34.257C-30.511,33.622 -30.951,32.681 -30.951,31.689L-30.951,7.3C-30.951,5.646 -30.631,4.035 -30,2.513C-29.292,0.809 -27.34,0 -25.632,0.707C-23.928,1.415 -23.119,3.37 -23.825,5.075C-24.119,5.781 -24.268,6.53 -24.268,7.3L-24.268,27.817C-15.743,26.854 -7.012,27.794 1.082,30.565C2.828,31.163 3.76,33.063 3.163,34.809C2.688,36.197 1.389,37.07 0,37.07" style="fill:white;fill-rule:nonzero;"/>
                    </g>
                    <g transform="matrix(1,0,0,1,182.313,114.017)">
                        <path d="M0,37.873L-17.595,37.873C-19.44,37.873 -20.937,36.377 -20.937,34.531C-20.937,32.686 -19.44,31.189 -17.595,31.189L-1.165,31.189C-0.652,30.63 0.17,29.448 0.571,27.335C-8.077,22.512 -13.72,13.643 -14.336,3.657C-14.451,1.814 -13.049,0.23 -11.207,0.116C-9.402,0 -7.78,1.402 -7.666,3.246C-7.15,11.574 -2.1,18.894 5.517,22.35C6.752,22.91 7.526,24.162 7.477,25.518C7.155,34.171 2.175,37.15 1.607,37.46C1.115,37.731 0.562,37.873 0,37.873" style="fill:white;fill-rule:nonzero;"/>
                    </g>
                    <g transform="matrix(1,0,0,1,183.776,96.7464)">
                        <path d="M0,0.339C-1.127,0.339 -2.229,-0.232 -2.859,-1.266C-3.818,-2.843 -3.317,-4.899 -1.739,-5.858C2.131,-8.213 6.543,-9.64 11.019,-9.99C14.143,-10.228 17.217,-9.987 20.194,-9.268C21.989,-8.836 23.093,-7.03 22.66,-5.237C22.228,-3.442 20.418,-2.34 18.628,-2.771C16.329,-3.324 13.955,-3.516 11.538,-3.326C8.103,-3.058 4.712,-1.96 1.733,-0.147C1.191,0.182 0.592,0.339 0,0.339M36.29,10.567C35.081,10.567 33.915,9.909 33.32,8.762C33.058,8.256 32.777,7.762 32.479,7.28C31.504,5.713 31.987,3.652 33.555,2.679C35.128,1.707 37.185,2.19 38.157,3.756C38.547,4.384 38.913,5.029 39.253,5.688C40.104,7.326 39.464,9.343 37.824,10.192C37.333,10.446 36.808,10.567 36.29,10.567" style="fill:white;fill-rule:nonzero;"/>
                    </g>
                    <g transform="matrix(1,0,0,1,228.578,114.087)">
                        <path d="M0,37.803L-17.682,37.803C-18.19,37.803 -18.693,37.687 -19.152,37.462C-23.076,35.54 -24.989,30.862 -24.267,24.95C-24.125,23.789 -23.388,22.788 -22.322,22.308C-14.777,18.907 -9.55,11.44 -9.007,3.283C-8.886,1.441 -7.256,0 -5.452,0.172C-3.611,0.294 -2.217,1.885 -2.34,3.727C-2.998,13.632 -8.96,22.745 -17.721,27.482C-17.708,28.727 -17.51,30.31 -16.688,31.119L0,31.119C1.846,31.119 3.342,32.616 3.342,34.461C3.342,36.307 1.846,37.803 0,37.803" style="fill:white;fill-rule:nonzero;"/>
                    </g>
                    <g transform="matrix(1,0,0,1,282.307,170.722)">
                        <path d="M0,-13.154C-1.309,-13.154 -2.549,-13.927 -3.086,-15.21C-4.004,-17.41 -6.129,-18.833 -8.495,-18.833L-21.069,-18.833C-22.915,-18.833 -24.411,-20.329 -24.411,-22.175C-24.411,-24.02 -22.915,-25.516 -21.069,-25.516L-8.495,-25.516C-3.424,-25.516 1.119,-22.481 3.082,-17.785C3.794,-16.083 2.989,-14.125 1.286,-13.414C0.866,-13.239 0.429,-13.154 0,-13.154M0.703,12.362C-1.143,12.362 -2.639,10.866 -2.639,9.02L-2.639,6.814C-2.639,4.968 -1.143,3.472 0.703,3.472C2.549,3.472 4.045,4.968 4.045,6.814L4.045,9.02C4.045,10.866 2.549,12.362 0.703,12.362" style="fill:white;fill-rule:nonzero;"/>
                    </g>
                    <g transform="matrix(1,0,0,1,283.01,192.731)">
                        <path d="M0,34.664C-1.846,34.664 -3.342,33.167 -3.342,31.322L-3.342,3.342C-3.342,1.497 -1.846,0 0,0C1.846,0 3.342,1.497 3.342,3.342L3.342,31.322C3.342,33.167 1.846,34.664 0,34.664" style="fill:white;fill-rule:nonzero;"/>
                    </g>
                    <g transform="matrix(1,0,0,1,283.01,246.877)">
                        <path d="M0,34.664C-1.846,34.664 -3.342,33.168 -3.342,31.322L-3.342,3.342C-3.342,1.497 -1.846,0 0,0C1.846,0 3.342,1.497 3.342,3.342L3.342,31.322C3.342,33.168 1.846,34.664 0,34.664" style="fill:white;fill-rule:nonzero;"/>
                    </g>
                    <g transform="matrix(1,0,0,1,246.824,306.055)">
                        <path d="M0,19.163L-2.11,19.163C-3.956,19.163 -5.452,17.667 -5.452,15.821C-5.452,13.976 -3.956,12.479 -2.11,12.479L0,12.479C1.845,12.479 3.342,13.976 3.342,15.821C3.342,17.667 1.845,19.163 0,19.163M26.987,19.163L22.356,19.163C20.511,19.163 19.015,17.667 19.015,15.821C19.015,13.976 20.511,12.479 22.356,12.479L26.987,12.479C30.217,12.479 32.844,9.852 32.844,6.623L32.844,3.342C32.844,1.496 34.34,0 36.186,0C38.031,0 39.527,1.496 39.527,3.342L39.527,6.623C39.527,13.539 33.903,19.163 26.987,19.163" style="fill:white;fill-rule:nonzero;"/>
                    </g>
                    <g transform="matrix(1,0,0,1,222.518,318.534)">
                        <path d="M0,37.764C-1.751,37.764 -3.223,36.4 -3.332,34.628C-3.848,26.299 -8.898,18.98 -16.514,15.524C-17.749,14.964 -18.522,13.712 -18.473,12.358C-18.155,3.703 -13.172,0.723 -12.604,0.411C-12.111,0.143 -11.558,0 -10.997,0L6.599,0C8.444,0 9.94,1.496 9.94,3.342C9.94,5.188 8.444,6.684 6.599,6.684L-9.832,6.684C-10.344,7.243 -11.168,8.425 -11.569,10.538C-2.921,15.362 2.722,24.231 3.338,34.217C3.453,36.059 2.051,37.644 0.209,37.758C0.139,37.763 0.07,37.764 0,37.764" style="fill:white;fill-rule:nonzero;"/>
                    </g>
                    <g transform="matrix(1,0,0,1,174.743,374.893)">
                        <path d="M0,-3.393C-1.118,-3.393 -2.209,-3.954 -2.842,-4.973C-3.232,-5.6 -3.596,-6.243 -3.937,-6.9C-4.789,-8.537 -4.151,-10.555 -2.513,-11.406C-0.881,-12.259 1.143,-11.618 1.993,-9.981C2.255,-9.477 2.538,-8.981 2.836,-8.497C3.811,-6.929 3.328,-4.869 1.759,-3.896C1.211,-3.555 0.601,-3.393 0,-3.393M21.975,8.866C19.663,8.866 17.355,8.591 15.119,8.053C13.325,7.621 12.221,5.816 12.653,4.021C13.083,2.228 14.892,1.12 16.685,1.555C18.986,2.111 21.358,2.301 23.776,2.111C27.211,1.843 30.601,0.745 33.58,-1.068C35.153,-2.028 37.208,-1.529 38.172,0.051C39.131,1.628 38.63,3.683 37.053,4.643C33.182,6.998 28.77,8.425 24.295,8.775C23.517,8.835 22.744,8.866 21.975,8.866" style="fill:white;fill-rule:nonzero;"/>
                    </g>
                </g>
            </g>
        </g>
    </g>
</svg>
