<?xml version="1.0" encoding="UTF-8" standalone="no"?>
<!DOCTYPE svg PUBLIC "-//W3C//DTD SVG 1.1//EN" "http://www.w3.org/Graphics/SVG/1.1/DTD/svg11.dtd">
<svg width="100%" height="100%" viewBox="0 0 512 512" version="1.1" xmlns="http://www.w3.org/2000/svg" xmlns:xlink="http://www.w3.org/1999/xlink" xml:space="preserve" xmlns:serif="http://www.serif.com/" style="fill-rule:evenodd;clip-rule:evenodd;stroke-linejoin:round;stroke-miterlimit:1.41421;">
    <g id="Layer-1" serif:id="Layer 1">
        <g transform="matrix(1,0,0,1,210.647,116.831)">
            <path d="M0,215.824L0,70.91C0.775,70.465 1.434,69.803 1.876,68.955C3.071,66.648 2.225,63.833 0,62.55L0,-29.109L90.708,4.808L90.708,154.147C89.536,154.076 88.329,153.891 87.106,153.583C84.517,152.929 81.892,154.506 81.244,157.094C80.589,159.679 82.164,162.304 84.75,162.956C86.752,163.46 88.75,163.739 90.708,163.815L90.708,245.409L0,215.824ZM-102.681,245.592L-102.681,108.027C-101.87,107.953 -101.061,107.687 -100.343,107.183C-99.049,106.274 -97.623,105.306 -96.105,104.31C-93.875,102.845 -93.255,99.85 -94.721,97.617C-96.184,95.387 -99.181,94.768 -101.411,96.231C-101.849,96.518 -102.26,96.798 -102.681,97.08L-102.681,5.013L-11.421,-29.109L-11.421,59.911C-11.788,59.901 -12.144,59.882 -12.518,59.882L-12.853,59.885C-15.523,59.908 -17.666,62.091 -17.645,64.759C-17.621,67.426 -15.417,69.551 -12.769,69.548L-12.518,69.548C-12.141,69.548 -11.783,69.561 -11.421,69.574L-11.421,215.824L-102.681,245.592ZM202.355,-42.032C200.818,-43.1 198.854,-43.345 197.099,-42.689L188.055,-39.307C184.826,-37.127 181.223,-35.426 177.325,-34.33L176.283,-22.711L193.387,-29.109L193.387,215.824L102.681,245.409L102.681,4.808L151.933,-13.607L152.338,-25.953L96.695,-5.148L-3.711,-42.689C-3.801,-42.723 -3.894,-42.744 -3.986,-42.773C-4.109,-42.812 -4.228,-42.855 -4.354,-42.886C-4.46,-42.912 -4.565,-42.926 -4.671,-42.944C-4.79,-42.968 -4.908,-42.994 -5.029,-43.008C-5.138,-43.021 -5.246,-43.023 -5.351,-43.029C-5.472,-43.036 -5.593,-43.05 -5.715,-43.05C-5.82,-43.05 -5.926,-43.036 -6.031,-43.031C-6.155,-43.023 -6.276,-43.023 -6.395,-43.008C-6.505,-42.994 -6.616,-42.97 -6.727,-42.949C-6.84,-42.928 -6.956,-42.912 -7.067,-42.886C-7.193,-42.855 -7.315,-42.812 -7.436,-42.773C-7.525,-42.744 -7.621,-42.723 -7.71,-42.689L-110.391,-4.3C-112.624,-3.464 -114.103,-1.331 -114.103,1.052L-114.103,253.46C-114.103,255.289 -113.225,257.005 -111.746,258.08C-110.758,258.8 -109.582,259.169 -108.391,259.169C-107.798,259.169 -107.199,259.077 -106.622,258.889L-5.712,225.975L93.453,258.317C94.357,258.868 95.377,259.169 96.42,259.169C96.51,259.169 96.603,259.15 96.695,259.15C96.785,259.15 96.876,259.169 96.972,259.169C98.01,259.169 99.033,258.868 99.937,258.317L200.871,225.397C203.222,224.631 204.809,222.44 204.809,219.968L204.809,-37.34C204.809,-39.212 203.894,-40.965 202.355,-42.032" style="fill:white;fill-rule:nonzero;"/>
        </g>
        <g transform="matrix(1,0,0,1,374.772,203.062)">
            <path d="M0,-175.754C1.018,-175.915 2.027,-175.991 3.026,-175.991C12.389,-175.991 20.647,-169.17 22.149,-159.636C23.812,-149.084 16.58,-139.147 6.031,-137.483C5.014,-137.325 4.001,-137.246 3.005,-137.246C-6.357,-137.246 -14.616,-144.071 -16.118,-153.605C-17.781,-164.156 -10.552,-174.091 0,-175.754M-4.265,-127.066L-8.079,-11.064C-10.867,-10.789 -13.54,-9.424 -15.388,-7.033C-18.949,-2.431 -18.104,4.188 -13.501,7.749C-8.901,11.308 -2.28,10.464 1.278,5.862C4.84,1.259 3.996,-5.359 -0.606,-8.921C-1.573,-9.669 -2.628,-10.21 -3.725,-10.576L6.666,-126.408C7.027,-126.452 7.389,-126.495 7.752,-126.552C24.332,-129.165 35.695,-144.78 33.083,-161.357C30.724,-176.339 17.745,-187.062 3.031,-187.062C1.463,-187.062 -0.124,-186.938 -1.724,-186.688C-18.304,-184.076 -29.667,-168.461 -27.052,-151.881C-25.091,-139.429 -15.794,-129.921 -4.265,-127.066" style="fill:white;fill-rule:nonzero;"/>
        </g>
        <g transform="matrix(1,0,0,1,229.407,210.992)">
            <path d="M0,-13.973C-1.687,-16.04 -4.729,-16.348 -6.8,-14.661C-8.867,-12.974 -9.175,-9.932 -7.488,-7.863C-5.548,-5.486 -3.419,-2.763 -0.973,0.461C-0.023,1.715 1.421,2.375 2.881,2.375C3.898,2.375 4.924,2.053 5.796,1.394C7.923,-0.219 8.34,-3.25 6.727,-5.377C4.212,-8.696 2.011,-11.506 0,-13.973" style="fill:white;fill-rule:nonzero;"/>
        </g>
        <g transform="matrix(1,0,0,1,139.976,208.385)">
            <path d="M0,-12.924C-3.2,-11.313 -6.442,-9.613 -9.637,-7.876C-11.98,-6.598 -12.847,-3.664 -11.571,-1.32C-10.694,0.29 -9.036,1.202 -7.322,1.202C-6.542,1.202 -5.751,1.012 -5.016,0.612C-1.914,-1.078 1.236,-2.728 4.344,-4.294C6.729,-5.493 7.689,-8.398 6.49,-10.781C5.291,-13.164 2.386,-14.126 0,-12.924" style="fill:white;fill-rule:nonzero;"/>
        </g>
        <g transform="matrix(1,0,0,1,172.74,193.852)">
            <path d="M0,-12.249C-3.29,-11.176 -6.777,-9.919 -10.364,-8.503C-12.848,-7.525 -14.068,-4.721 -13.09,-2.238C-12.339,-0.334 -10.52,0.825 -8.593,0.825C-8.003,0.825 -7.404,0.717 -6.825,0.488C-3.417,-0.854 -0.113,-2.048 2.992,-3.06C5.53,-3.885 6.919,-6.613 6.091,-9.152C5.267,-11.687 2.541,-13.074 0,-12.249" style="fill:white;fill-rule:nonzero;"/>
        </g>
        <g transform="matrix(1,0,0,1,272.099,265.47)">
            <path d="M0,-13.625C-1.813,-15.581 -4.871,-15.697 -6.827,-13.881C-8.785,-12.067 -8.901,-9.01 -7.085,-7.054C-4.376,-4.13 -1.719,-1.482 0.807,0.817C1.734,1.658 2.896,2.072 4.057,2.072C5.372,2.072 6.68,1.542 7.634,0.493C9.429,-1.484 9.283,-4.54 7.31,-6.334C4.984,-8.448 2.525,-10.902 0,-13.625" style="fill:white;fill-rule:nonzero;"/>
        </g>
        <g transform="matrix(1,0,0,1,355.727,240.698)">
            <path d="M0,-17.442C-2.378,-18.66 -5.285,-17.716 -6.503,-15.341C-8.234,-11.959 -9.801,-8.912 -11.411,-5.889C-12.668,-3.532 -11.774,-0.607 -9.421,0.648C-8.696,1.033 -7.918,1.218 -7.151,1.218C-5.425,1.218 -3.754,0.287 -2.884,-1.344C-1.236,-4.431 0.346,-7.515 2.098,-10.939C3.316,-13.314 2.375,-16.224 0,-17.442" style="fill:white;fill-rule:nonzero;"/>
        </g>
        <g transform="matrix(1,0,0,1,332.027,267.801)">
            <path d="M0,-13.225C-2.22,-10.381 -4.402,-7.993 -6.672,-5.929C-8.646,-4.134 -8.788,-1.076 -6.996,0.899C-6.041,1.947 -4.731,2.48 -3.419,2.48C-2.259,2.48 -1.094,2.064 -0.169,1.223C2.515,-1.216 5.061,-3.999 7.623,-7.284C9.263,-9.39 8.886,-12.426 6.779,-14.066C4.676,-15.705 1.64,-15.329 0,-13.225" style="fill:white;fill-rule:nonzero;"/>
        </g>
        <g transform="matrix(1,0,0,1,250.544,238.781)">
            <path d="M0,-13.701C-1.589,-15.847 -4.615,-16.295 -6.761,-14.705C-8.904,-13.116 -9.352,-10.09 -7.763,-7.947C-5.293,-4.613 -3.226,-1.866 -1.257,0.701C-0.306,1.943 1.128,2.594 2.581,2.594C3.606,2.594 4.639,2.27 5.52,1.595C7.636,-0.029 8.035,-3.063 6.413,-5.179C4.476,-7.702 2.438,-10.411 0,-13.701" style="fill:white;fill-rule:nonzero;"/>
        </g>
    </g>
</svg>
