<?xml version="1.0" encoding="UTF-8" standalone="no"?>
<!DOCTYPE svg PUBLIC "-//W3C//DTD SVG 1.1//EN" "http://www.w3.org/Graphics/SVG/1.1/DTD/svg11.dtd">
<svg width="100%" height="100%" viewBox="0 0 512 512" version="1.1" xmlns="http://www.w3.org/2000/svg" xmlns:xlink="http://www.w3.org/1999/xlink" xml:space="preserve" xmlns:serif="http://www.serif.com/" style="fill-rule:evenodd;clip-rule:evenodd;stroke-linejoin:round;stroke-miterlimit:1.41421;">
    <g id="Layer-1" serif:id="Layer 1">
        <g transform="matrix(1,0,0,1,184.13,64.745)">
            <path d="M0,-23.931L114.817,13.732L157.229,-37.336L0,-23.931ZM116.464,24.379C115.952,24.379 115.436,24.299 114.931,24.134L-26.032,-22.106C-28.256,-22.835 -29.658,-25.029 -29.389,-27.354C-29.118,-29.679 -27.248,-31.492 -24.915,-31.691L168.117,-48.147C170.102,-48.31 171.98,-47.28 172.899,-45.521C173.818,-43.762 173.592,-41.622 172.323,-40.095L120.253,22.601C119.302,23.748 117.903,24.379 116.464,24.379" style="fill:white;fill-rule:nonzero;"/>
        </g>
        <g transform="matrix(1,0,0,1,184.13,64.745)">
            <clipPath id="_clip1">
                <path d="M168.117,-48.147L-24.916,-31.691C-27.248,-31.492 -29.119,-29.678 -29.388,-27.354C-29.659,-25.029 -28.256,-22.835 -26.032,-22.106L114.93,24.134C115.435,24.299 115.952,24.379 116.464,24.379C117.903,24.379 119.301,23.747 120.253,22.601L172.323,-40.095C173.592,-41.622 173.818,-43.762 172.899,-45.521C172.044,-47.158 170.356,-48.164 168.527,-48.164C168.391,-48.164 168.255,-48.159 168.117,-48.147ZM0,-23.931L157.229,-37.336L114.818,13.732L0,-23.931Z" clip-rule="nonzero"/>
            </clipPath>
            <g clip-path="url(#_clip1)">
                <path d="M0,-23.931L114.817,13.732L157.229,-37.336L0,-23.931ZM116.464,24.379C115.952,24.379 115.436,24.299 114.931,24.134L-26.032,-22.106C-28.256,-22.835 -29.658,-25.029 -29.389,-27.354C-29.118,-29.679 -27.248,-31.492 -24.915,-31.691L168.117,-48.147C170.102,-48.31 171.98,-47.28 172.899,-45.521C173.818,-43.762 173.592,-41.622 172.323,-40.095L120.253,22.601C119.302,23.748 117.903,24.379 116.464,24.379" style="fill:white;fill-rule:nonzero;"/>
            </g>
        </g>
        <g transform="matrix(1,0,0,1,319.232,317.971)">
            <path d="M0,-3.348C-1.967,-3.348 -3.641,-4.855 -3.812,-6.852C-3.992,-8.959 -2.429,-10.813 -0.321,-10.994L25.845,-13.23C27.96,-13.417 29.806,-11.847 29.986,-9.741C30.167,-7.633 28.604,-5.779 26.497,-5.598L0.33,-3.362C0.219,-3.352 0.109,-3.348 0,-3.348M-54.331,1.124C-56.299,1.124 -57.972,-0.382 -58.143,-2.38C-58.322,-4.487 -56.761,-6.341 -54.653,-6.522L-28.486,-8.757C-26.365,-8.937 -24.525,-7.374 -24.345,-5.267C-24.165,-3.16 -25.728,-1.306 -27.835,-1.125L-54.001,1.11C-54.112,1.12 -54.223,1.124 -54.331,1.124M-106.664,5.597C-108.631,5.597 -110.305,4.09 -110.476,2.093C-110.656,-0.014 -109.093,-1.868 -106.985,-2.048L-80.819,-4.285C-78.708,-4.471 -76.858,-2.903 -76.678,-0.795C-76.497,1.312 -78.061,3.166 -80.168,3.346L-106.334,5.584C-106.445,5.592 -106.555,5.597 -106.664,5.597M-158.995,10.069C-160.963,10.069 -162.636,8.562 -162.807,6.565C-162.987,4.458 -161.425,2.604 -159.317,2.423L-133.15,0.187C-131.041,0.007 -129.189,1.569 -129.009,3.676C-128.828,5.784 -130.392,7.638 -132.499,7.819L-158.665,10.055C-158.776,10.065 -158.887,10.069 -158.995,10.069" style="fill:white;fill-rule:nonzero;"/>
        </g>
        <g transform="matrix(1,0,0,1,305.517,306.765)">
            <path d="M0,-220.785L-0.28,51.236L41.93,0.414L42.21,-271.609L0,-220.785ZM-5.22,69.814C-5.779,69.814 -6.346,69.719 -6.893,69.52C-8.846,68.815 -10.145,66.961 -10.143,64.885L-9.846,-222.571C-9.845,-223.718 -9.442,-224.828 -8.71,-225.711L43.36,-288.408C44.687,-290.003 46.871,-290.599 48.822,-289.892C50.775,-289.186 52.074,-287.332 52.072,-285.256L51.775,2.199C51.774,3.346 51.372,4.457 50.64,5.34L-1.431,68.035C-2.385,69.185 -3.783,69.814 -5.22,69.814" style="fill:white;fill-rule:nonzero;"/>
        </g>
        <g transform="matrix(1,0,0,1,164.263,87.5186)">
            <path d="M0,234.331L131.119,277.342L131.405,0.248L0.286,-42.763L0,234.331ZM136.035,289.06C135.521,289.06 135.002,288.979 134.501,288.815L-6.462,242.575C-8.485,241.912 -9.854,240.022 -9.852,237.892L-9.555,-49.564C-9.552,-51.141 -8.796,-52.622 -7.517,-53.547C-6.238,-54.472 -4.593,-54.729 -3.096,-54.237L137.867,-7.997C139.891,-7.333 141.259,-5.443 141.257,-3.313L140.959,284.142C140.957,285.72 140.201,287.201 138.922,288.126C138.071,288.741 137.06,289.06 136.035,289.06" style="fill:white;fill-rule:nonzero;"/>
        </g>
    </g>
</svg>
