<?xml version="1.0" encoding="UTF-8" standalone="no"?>
<!DOCTYPE svg PUBLIC "-//W3C//DTD SVG 1.1//EN" "http://www.w3.org/Graphics/SVG/1.1/DTD/svg11.dtd">
<svg width="100%" height="100%" viewBox="0 0 512 512" version="1.1" xmlns="http://www.w3.org/2000/svg" xmlns:xlink="http://www.w3.org/1999/xlink" xml:space="preserve" xmlns:serif="http://www.serif.com/" style="fill-rule:evenodd;clip-rule:evenodd;stroke-linejoin:round;stroke-miterlimit:1.41421;">
    <g id="Layer-1" serif:id="Layer 1">
        <g transform="matrix(1,0,0,1,379.876,24.872)">
            <path d="M0,108.295C-0.746,108.546 -0.739,109.304 -1.006,109.855C-3.584,115.183 -8.551,117.731 -14.221,116.602C-19.33,115.585 -23.313,111.022 -23.207,105.426C-23.146,102.195 -24.251,101.781 -27.11,101.785C-91.7,101.868 -156.29,101.86 -220.879,101.804C-223.392,101.802 -224.563,102.01 -224.554,105.126C-224.531,112.037 -229.77,116.958 -236.321,116.836C-242.993,116.712 -247.675,111.741 -247.676,104.731C-247.683,71.049 -247.633,37.368 -247.722,3.688C-247.737,-2.416 -245.318,-6.586 -239.614,-8.813C-239.307,-8.933 -239.066,-9.225 -238.794,-9.436L-233.796,-9.436C-233.649,-8.855 -233.12,-8.929 -232.706,-8.786C-227.845,-7.106 -224.846,-3.661 -224.64,1.405C-224.512,4.563 -223.116,4.565 -220.781,4.563C-166.484,4.521 -112.188,4.531 -57.891,4.531C-47.254,4.531 -36.616,4.488 -25.979,4.57C-24.067,4.585 -23.295,4.307 -23.234,2.079C-23.096,-2.99 -20.528,-6.62 -15.736,-8.556C-15.257,-8.749 -14.611,-8.764 -14.438,-9.436L-9.44,-9.436C-9.014,-8.532 -8.031,-8.768 -7.328,-8.445C-3.505,-6.691 -0.929,-4.009 -0.447,0.339C-0.48,0.8 -0.543,1.26 -0.543,1.721C-0.551,36.287 -0.554,70.853 -0.548,105.419C-0.548,106.222 -0.779,107.108 0,107.74L0,108.295Z" style="fill:white;fill-rule:nonzero;"/>
        </g>
        <g transform="matrix(1,0,0,1,379.876,25.2118)">
            <path d="M0,107.4C-0.779,106.768 -0.548,105.882 -0.548,105.079C-0.554,70.513 -0.551,35.947 -0.543,1.381C-0.543,0.921 -0.48,0.46 -0.447,0C-0.299,0.073 -0.149,0.147 0,0.22L0,107.4Z" style="fill:white;fill-rule:nonzero;"/>
        </g>
        <g transform="matrix(1,0,0,1,188.625,336.45)">
            <path d="M0,-132.131C6.037,-126.661 11.583,-121.653 17.109,-116.624C32.433,-102.682 47.752,-88.735 63.06,-74.774C64.207,-73.727 65.002,-72.893 66.652,-74.402C86.989,-93.005 107.407,-111.52 127.778,-130.086C128.374,-130.63 129.39,-130.998 129.336,-132.131L0,-132.131ZM66.309,-171.073C100.547,-171.073 134.787,-171.079 169.025,-171.07C179.751,-171.067 187.929,-163.609 188.919,-152.971C189.814,-143.365 182.786,-134.405 172.804,-132.462C171.904,-132.286 170.931,-132.077 170.056,-132.235C165.965,-132.975 163.211,-130.996 160.331,-128.357C135.035,-105.179 109.636,-82.113 84.206,-59.083C82.59,-57.621 82.662,-56.955 84.212,-55.549C110.256,-31.957 136.241,-8.298 162.258,15.324C165.383,18.161 168.416,20.978 168.488,25.649C168.568,30.79 166.418,34.639 161.723,36.753C157.177,38.802 152.835,38.14 149.1,34.771C139.006,25.666 128.962,16.505 118.9,7.366C101.582,-8.365 84.244,-24.074 66.982,-39.866C65.378,-41.333 64.529,-41.216 62.973,-39.796C36.001,-15.165 8.956,9.384 -18.041,33.988C-21.945,37.545 -26.293,38.967 -31.285,36.947C-35.703,35.159 -38.07,31.642 -38.389,26.877C-38.638,23.152 -37.281,20.032 -34.506,17.51C-9.936,-4.818 14.628,-27.153 39.193,-49.488C41.451,-51.541 43.619,-53.703 45.984,-55.624C47.572,-56.913 47.45,-57.652 45.976,-58.983C32.863,-70.817 19.827,-82.736 6.756,-94.617C-6.314,-106.498 -19.415,-118.344 -32.45,-130.264C-33.894,-131.585 -35.273,-132.257 -37.31,-132.256C-47.947,-132.245 -56.448,-140.871 -56.501,-151.53C-56.555,-162.305 -48.021,-171.046 -37.242,-171.058C-2.725,-171.098 31.792,-171.073 66.309,-171.073" style="fill:white;fill-rule:nonzero;"/>
        </g>
    </g>
</svg>
