<?xml version="1.0" encoding="UTF-8" standalone="no"?>
<!DOCTYPE svg PUBLIC "-//W3C//DTD SVG 1.1//EN" "http://www.w3.org/Graphics/SVG/1.1/DTD/svg11.dtd">
<svg width="100%" height="100%" viewBox="0 0 512 512" version="1.1" xmlns="http://www.w3.org/2000/svg" xmlns:xlink="http://www.w3.org/1999/xlink" xml:space="preserve" xmlns:serif="http://www.serif.com/" style="fill-rule:evenodd;clip-rule:evenodd;stroke-linejoin:round;stroke-miterlimit:1.41421;">
    <g id="Layer-1" serif:id="Layer 1">
        <g transform="matrix(1,0,0,1,420.587,73.6733)">
            <path d="M0,219.23L0,0.39L-323.534,0.39L-323.534,4.194C-323.534,55.282 -323.532,106.37 -323.542,157.458C-323.542,158.829 -323.553,160.218 -323.765,161.566C-324.358,165.336 -327.456,167.936 -331.225,167.953C-335.088,167.97 -338.266,165.242 -338.813,161.373C-338.954,160.38 -338.946,159.361 -338.947,158.355C-338.952,103.69 -338.952,49.025 -338.95,-5.64C-338.95,-12.615 -336.312,-15.234 -329.31,-15.234C-217.596,-15.235 -105.882,-15.207 5.832,-15.318C11.206,-15.324 15.426,-12.59 15.413,-5.843C15.265,71.11 15.319,148.063 15.318,225.016C15.318,232.102 12.856,234.55 5.729,234.55C-39.215,234.551 -84.157,234.554 -129.1,234.546C-135.229,234.545 -138.976,229.928 -137.289,224.514C-136.289,221.302 -133.593,219.273 -130.062,219.245C-124.192,219.197 -118.321,219.23 -112.451,219.23L0,219.23Z" style="fill:white;fill-rule:nonzero;"/>
        </g>
        <g transform="matrix(1,0,0,1,253.768,272.881)">
            <path d="M0,3.811C7.552,-3.166 14.815,-9.874 22.076,-16.585C33.247,-26.911 44.408,-37.248 55.591,-47.561C59.241,-50.927 64.189,-51.02 67.153,-47.848C70.296,-44.486 69.839,-39.695 66.041,-36.186C45.04,-16.782 24.038,2.621 3.04,22.027C-1.904,26.596 -7.803,25.303 -10.471,19.172C-15.177,8.355 -19.73,-2.541 -24.835,-13.169C-28.225,-20.227 -33.167,-26.316 -39.241,-31.377C-46.215,-37.187 -54.314,-39.913 -63.33,-39.958C-73.601,-40.009 -83.875,-39.812 -94.143,-40.009C-107.931,-40.274 -118.756,-34.669 -127.251,-24.065C-134.027,-15.606 -138.663,-5.973 -142.704,3.99C-149.48,20.698 -156.277,37.397 -163.021,54.118C-164.304,57.298 -166.439,59.334 -169.9,59.604C-172.984,59.844 -175.82,58.718 -176.919,55.831C-177.73,53.699 -178.135,50.777 -177.33,48.762C-169.078,28.112 -160.822,7.454 -151.982,-12.95C-146.617,-25.331 -138.952,-36.293 -128.025,-44.632C-118.129,-52.185 -106.884,-55.78 -94.518,-55.91C-84.615,-56.014 -74.708,-56.033 -64.806,-55.909C-45.582,-55.67 -30.535,-47.217 -18.889,-32.226C-11.395,-22.579 -6.236,-11.674 -1.756,-0.405C-1.251,0.864 -0.708,2.116 0,3.811" style="fill:white;fill-rule:nonzero;"/>
        </g>
        <g transform="matrix(1,0,0,1,200.798,161.277)">
            <path d="M0,0.041C0.003,-14.829 -12.059,-26.904 -26.896,-26.885C-41.618,-26.865 -53.924,-14.516 -53.829,0.144C-53.734,14.728 -41.533,26.893 -26.934,26.961C-12.162,27.029 -0.003,14.876 0,0.041M14.953,-0.069C14.959,23.311 -3.56,41.919 -26.83,41.914C-50.047,41.908 -68.833,23.139 -68.796,-0.017C-68.76,-23.227 -50.001,-41.878 -26.736,-41.837C-3.54,-41.795 14.946,-23.274 14.953,-0.069" style="fill:white;fill-rule:nonzero;"/>
        </g>
        <g transform="matrix(1,0,0,1,321.987,148.429)">
            <path d="M0,-14.865C18.878,-14.865 37.757,-14.874 56.635,-14.859C61.581,-14.855 64.703,-12.317 65.088,-8.084C65.438,-4.226 62.854,-0.833 59.023,-0.177C58.218,-0.04 57.386,-0.006 56.565,-0.006C18.809,0.002 -18.949,0.009 -56.706,-0.028C-58.137,-0.029 -59.669,-0.205 -60.979,-0.733C-64.1,-1.99 -65.713,-5.192 -65.208,-8.558C-64.719,-11.818 -62.373,-14.217 -59.097,-14.712C-58.108,-14.861 -57.091,-14.859 -56.086,-14.86C-37.391,-14.867 -18.695,-14.865 0,-14.865" style="fill:white;fill-rule:nonzero;"/>
        </g>
        <g transform="matrix(1,0,0,1,304.939,167.147)">
            <path d="M0,14.856C-13.467,14.856 -26.934,14.881 -40.4,14.841C-44.456,14.829 -47.302,12.608 -48.053,9.105C-48.799,5.63 -47.337,2.28 -44.199,0.842C-42.998,0.291 -41.56,0.028 -40.229,0.025C-13.387,-0.02 13.455,-0.025 40.298,0.007C45.121,0.012 48.358,3.141 48.314,7.509C48.271,11.86 45.029,14.831 40.127,14.844C26.751,14.879 13.376,14.856 0,14.856" style="fill:white;fill-rule:nonzero;"/>
        </g>
    </g>
</svg>
