<?xml version="1.0" encoding="UTF-8" standalone="no"?>
<!DOCTYPE svg PUBLIC "-//W3C//DTD SVG 1.1//EN" "http://www.w3.org/Graphics/SVG/1.1/DTD/svg11.dtd">
<svg width="100%" height="100%" viewBox="0 0 512 512" version="1.1" xmlns="http://www.w3.org/2000/svg" xmlns:xlink="http://www.w3.org/1999/xlink" xml:space="preserve" xmlns:serif="http://www.serif.com/" style="fill-rule:evenodd;clip-rule:evenodd;stroke-linejoin:round;stroke-miterlimit:1.41421;">
    <g id="Layer-1" serif:id="Layer 1">
        <g transform="matrix(1,0,0,1,322.828,232.467)">
            <path d="M0,14.769C-3.858,18.652 -10.395,20.544 -16.022,21.502C-15.875,42.242 -15.776,98.024 -18.627,120.508C-21.158,140.634 -35.337,142.968 -41.775,142.968L-42.192,142.968C-57.281,142.723 -63.744,130.165 -65.07,123.581C-65.096,123.506 -65.096,123.457 -65.12,123.383L-65.292,125.177C-65.316,125.595 -65.391,126.013 -65.488,126.431C-66.914,132.082 -73.549,142.772 -88.587,142.772C-103.062,142.772 -109.328,132.082 -110.286,125.153C-111.539,116.257 -112.252,101.882 -112.645,86.253L-163.119,86.253C-167.419,86.253 -170.909,82.764 -170.909,78.463L-170.909,30.152C-170.909,25.852 -167.419,22.362 -163.119,22.362L-112.94,22.362C-112.842,14.081 -112.743,8.872 -112.743,8.872C-112.866,4.128 -111.539,0.197 -106.796,0.099C-102.078,-0.098 -98.122,3.76 -98.024,8.503L-95.591,122.745C-95.591,122.745 -94.731,130.486 -86.13,130.486C-77.529,130.486 -77.775,123.409 -77.407,122.573L-74.286,15.236C-73.868,10.812 -70.158,7.471 -65.734,7.471L-65.587,7.471C-61.09,7.544 -57.429,11.059 -57.158,15.531L-50.572,123.04C-50.057,124.785 -50.499,130.953 -41.923,130.682C-35.755,130.486 -34.108,127.783 -33.224,120.803C-29.906,94.682 -30.84,17.103 -30.84,16.317C-30.889,11.673 -27.252,7.839 -22.607,7.618C-17.938,7.421 -12.287,6.316 -10.125,5.259C-5.726,-7.347 -12.68,-82.124 -27.474,-103.724C-28.947,-105.395 -41.186,-111.588 -61.532,-112.104C-87.801,-112.767 -105.986,-107.951 -108.812,-105.076C-123.58,-89.815 -125.669,-26.097 -126.603,8.92C-126.75,13.663 -129.134,17.448 -134.048,17.448C-138.791,17.448 -141.47,13.221 -141.347,8.454C-141.077,-1.499 -145.401,-89.521 -121.172,-114.561C-110.286,-125.815 -73.524,-128.199 -50.916,-126.307C-22.928,-123.948 -17.521,-116.06 -15.752,-113.455C-3.588,-95.738 2.063,-56.568 3.489,-44.994C6.34,-22.165 8.035,6.733 0,14.769" style="fill:white;fill-rule:nonzero;"/>
        </g>
        <g transform="matrix(1,0,0,1,344.912,277.304)">
            <path d="M-14.485,15.729C-25.37,15.729 -31.276,7.987 -32.861,3.792C-33.078,3.22 -33.175,2.621 -33.175,2.009L-33.175,-17.968C-33.175,-21.076 -30.447,-23.596 -27.084,-23.596C-23.721,-23.596 -20.992,-21.076 -20.992,-17.968L-20.992,0.792C-20.17,2.172 -18.035,4.776 -13.668,4.44C-11.524,4.275 -9.677,1.991 -8.811,0.65L-8.811,-68.741C-8.811,-71.1 -7.216,-73.209 -4.82,-74.023C0.632,-75.878 6.494,-78.645 8.611,-80.296C8.752,-101.628 6.483,-136.653 -0.377,-146.992C-4.803,-148.804 -11.778,-149.166 -27.165,-148.344C-28.389,-151.551 -30.386,-154.878 -33.347,-159.581C3.595,-162.544 7.783,-155.908 9.252,-153.949C21.245,-137.922 20.858,-84.37 20.774,-78.316C20.765,-77.577 20.597,-76.847 20.28,-76.167C18.065,-71.407 9.904,-67.425 3.372,-64.903L3.372,2.009C3.372,2.766 3.207,3.515 2.886,4.21C2.386,5.299 -2.303,14.861 -12.654,15.658C-13.28,15.706 -13.891,15.729 -14.485,15.729" style="fill:white;fill-rule:nonzero;"/>
        </g>
        <g transform="matrix(1,0,0,1,195.562,249.399)">
            <path d="M0,-131.665C-2.998,-126.971 -3.662,-125.767 -4.915,-120.926C-20.199,-121.811 -21.871,-120.68 -25.605,-119.083C-32.511,-108.762 -37.253,-75.121 -37.106,-53.668C-34.968,-51.998 -29.12,-49.221 -23.665,-47.353C-21.28,-46.542 -19.684,-44.429 -19.684,-42.07C-19.684,-42.07 -19.094,-2.113 -19.118,-1.941C-19.513,0.835 -22.067,2.973 -25.163,2.973C-28.53,2.973 -31.328,1.155 -31.356,-1.941C-31.43,-10.217 -31.847,-38.212 -31.847,-38.212C-38.383,-40.743 -46.542,-44.748 -48.754,-49.516C-49.073,-50.204 -49.245,-50.941 -49.27,-51.678C-49.344,-57.748 -43.373,-108.099 -35.288,-126.013C-34.255,-128.249 -31.356,-134.638 0,-131.665" style="fill:white;fill-rule:nonzero;"/>
        </g>
        <g transform="matrix(1,0,0,1,334.368,102.038)">
            <path d="M0,-48.406C-8.62,-54.278 -19.279,-55.021 -28.282,-51.269C-27.129,-47.327 -26.894,-42.591 -27.713,-37.61C-22.948,-41.372 -16.504,-42.428 -10.75,-40.326C-9.409,-39.837 -8.096,-39.172 -6.865,-38.333C1.178,-32.858 3.254,-21.854 -2.221,-13.812C-7.707,-5.792 -18.7,-3.693 -26.736,-9.184C-30.982,-12.069 -33.564,-16.513 -34.251,-21.229C-37.105,-17.066 -40.587,-13.872 -44.181,-11.998C-42.029,-6.932 -38.468,-2.427 -33.602,0.888C-31.506,2.302 -29.302,3.422 -27.03,4.252C-20.769,6.538 -14.016,6.615 -7.845,4.681C-1.673,2.748 3.924,-1.211 7.836,-6.952C17.112,-20.535 13.584,-39.129 0,-48.406" style="fill:white;fill-rule:nonzero;"/>
        </g>
        <g transform="matrix(1,0,0,1,213.973,74.1294)">
            <path d="M0,9.102C-2.014,16.343 -8.55,21.768 -16.448,22.006C-26.172,22.317 -34.331,14.646 -34.641,4.922C-34.883,-3.301 -29.443,-10.403 -21.866,-12.578C-20.494,-12.971 -19.041,-13.208 -17.552,-13.254C-13.156,-13.394 -9.071,-11.904 -5.903,-9.319C-6.257,-14.215 -5.613,-18.781 -4.133,-22.52C-8.312,-24.525 -12.998,-25.588 -17.935,-25.439C-34.354,-24.926 -47.325,-11.137 -46.808,5.3C-46.291,21.736 -32.506,34.69 -16.065,34.19C-13.539,34.099 -11.098,33.706 -8.773,33.039C-2.366,31.2 3.136,27.285 6.986,22.088C7.821,20.961 8.583,19.765 9.258,18.521C5.815,16.558 2.594,13.282 0,9.102" style="fill:white;fill-rule:nonzero;"/>
        </g>
        <g transform="matrix(1,0,0,1,258.056,79.71)">
            <path d="M0,-51.981C-4.739,-51.981 -9.409,-50.707 -13.59,-48.218C-19.707,-44.575 -24.038,-38.768 -25.79,-31.869C-27.54,-24.967 -26.498,-17.796 -22.855,-11.677C-19.212,-5.56 -13.405,-1.229 -6.506,0.523C0.392,2.272 7.566,1.233 13.686,-2.412C19.803,-6.055 24.135,-11.862 25.886,-18.761C27.636,-25.663 26.594,-32.834 22.951,-38.953C19.309,-45.07 13.501,-49.401 6.602,-51.153C4.416,-51.708 2.2,-51.981 0,-51.981M0.115,13.643C-3.096,13.643 -6.331,13.242 -9.524,12.431C-19.608,9.875 -28.091,3.544 -33.412,-5.392C-38.734,-14.331 -40.256,-24.806 -37.698,-34.888C-35.142,-44.971 -28.812,-53.455 -19.875,-58.774C-10.938,-64.095 -0.463,-65.624 9.621,-63.061C19.704,-60.505 28.187,-54.174 33.508,-45.238C38.83,-36.298 40.352,-25.824 37.794,-15.742C35.238,-5.659 28.907,2.825 19.971,8.145C13.866,11.78 7.041,13.643 0.115,13.643" style="fill:white;fill-rule:nonzero;"/>
        </g>
    </g>
</svg>
