<?xml version="1.0" encoding="UTF-8" standalone="no"?>
<!DOCTYPE svg PUBLIC "-//W3C//DTD SVG 1.1//EN" "http://www.w3.org/Graphics/SVG/1.1/DTD/svg11.dtd">
<svg width="100%" height="100%" viewBox="0 0 512 512" version="1.1" xmlns="http://www.w3.org/2000/svg" xmlns:xlink="http://www.w3.org/1999/xlink" xml:space="preserve" xmlns:serif="http://www.serif.com/" style="fill-rule:evenodd;clip-rule:evenodd;stroke-miterlimit:10;">
    <g id="Layer-1" serif:id="Layer 1">
        <g transform="matrix(1,0,0,1,319.292,281.844)">
            <path d="M0,-190.124L0,0C0,6.6 -5.4,12 -12,12L-205.417,12C-212.017,12 -217.417,6.6 -217.417,0L-217.417,-190.124C-217.417,-196.724 -212.017,-202.124 -205.417,-202.124L-12,-202.124C-5.4,-202.124 0,-196.724 0,-190.124Z" style="fill:none;stroke:white;stroke-width:12px;"/>
        </g>
        <g transform="matrix(1,0,0,1,148.76,130.628)">
            <path d="M0,0L123.885,0" style="fill:none;stroke:white;stroke-width:12px;"/>
        </g>
        <g transform="matrix(1,0,0,1,148.76,169.392)">
            <path d="M0,0L123.885,0" style="fill:none;stroke:white;stroke-width:12px;"/>
        </g>
        <g transform="matrix(1,0,0,1,148.76,208.156)">
            <path d="M0,0L123.885,0" style="fill:none;stroke:white;stroke-width:12px;"/>
        </g>
        <g transform="matrix(1,0,0,1,148.76,246.921)">
            <path d="M0,0L123.885,0" style="fill:none;stroke:white;stroke-width:12px;"/>
        </g>
        <g transform="matrix(1,0,0,1,120.422,261.44)">
            <path d="M0,-1.236L0,0C0,3.912 -3.201,7.113 -7.113,7.113L-32.558,7.113C-36.47,7.113 -39.671,3.912 -39.671,0L-39.671,-1.236C-39.671,-5.148 -36.47,-8.349 -32.558,-8.349L-7.113,-8.349C-3.201,-8.349 0,-5.148 0,-1.236" style="fill:white;fill-rule:nonzero;"/>
        </g>
        <g transform="matrix(1,0,0,1,120.422,224.282)">
            <path d="M0,-1.236L0,-0.001C0,3.912 -3.201,7.113 -7.113,7.113L-32.558,7.113C-36.47,7.113 -39.671,3.912 -39.671,-0.001L-39.671,-1.236C-39.671,-5.148 -36.47,-8.349 -32.558,-8.349L-7.113,-8.349C-3.201,-8.349 0,-5.148 0,-1.236" style="fill:white;fill-rule:nonzero;"/>
        </g>
        <g transform="matrix(1,0,0,1,120.422,187.124)">
            <path d="M0,-1.236L0,0C0,3.912 -3.201,7.113 -7.113,7.113L-32.558,7.113C-36.47,7.113 -39.671,3.912 -39.671,0L-39.671,-1.236C-39.671,-5.148 -36.47,-8.349 -32.558,-8.349L-7.113,-8.349C-3.201,-8.349 0,-5.148 0,-1.236" style="fill:white;fill-rule:nonzero;"/>
        </g>
        <g transform="matrix(1,0,0,1,120.422,149.966)">
            <path d="M0,-1.236L0,-0.001C0,3.911 -3.201,7.113 -7.113,7.113L-32.558,7.113C-36.47,7.113 -39.671,3.911 -39.671,-0.001L-39.671,-1.236C-39.671,-5.149 -36.47,-8.349 -32.558,-8.349L-7.113,-8.349C-3.201,-8.349 0,-5.149 0,-1.236" style="fill:white;fill-rule:nonzero;"/>
        </g>
        <g transform="matrix(1,0,0,1,120.422,112.808)">
            <path d="M0,-1.236L0,-0.001C0,3.912 -3.201,7.113 -7.113,7.113L-32.558,7.113C-36.47,7.113 -39.671,3.912 -39.671,-0.001L-39.671,-1.236C-39.671,-5.148 -36.47,-8.349 -32.558,-8.349L-7.113,-8.349C-3.201,-8.349 0,-5.148 0,-1.236" style="fill:white;fill-rule:nonzero;"/>
        </g>
        <g transform="matrix(1,0,0,1,325.725,34.2632)">
            <path d="M0,0.001C0,6.648 -40.542,12.087 -46.384,12.087L-221.286,12.087C-227.127,12.087 -231.907,6.648 -231.907,0.001C-231.907,-6.647 -227.127,-12.086 -221.286,-12.086L-46.384,-12.086C-40.542,-12.086 0,-6.646 0,0.001" style="fill:white;fill-rule:nonzero;"/>
        </g>
        <g transform="matrix(1,0,0,1,414.728,21.5254)">
            <path d="M0,103.958L-59.349,103.958C-68.7,103.958 -76.352,96.307 -76.352,86.956L-76.352,45.598C-76.352,20.52 -55.832,0 -30.754,0L-29.077,0C-3.999,0 16.52,20.52 16.52,45.598L16.52,87.438C16.52,96.524 9.086,103.958 0,103.958" style="fill:white;fill-rule:nonzero;"/>
        </g>
        <g transform="matrix(1,0,0,1,390.793,142.82)">
            <path d="M0,151.024L-15.074,151.024C-17.512,151.024 -19.507,147.529 -19.507,143.257L-31.224,7.767C-31.224,3.495 -29.229,0 -26.791,0L11.38,0C13.818,0 15.813,3.495 15.813,7.767L4.434,143.257C4.434,147.529 2.438,151.024 0,151.024Z" style="fill:none;stroke:white;stroke-width:12px;"/>
        </g>
        <g transform="matrix(1,0,0,1,382.769,348.148)">
            <path d="M0,-49.892C0,-49.892 8.262,-1.018 -59.327,-1.033C-96.295,-1.04 -111.287,-21.825 -173.487,-21.489C-216.542,-21.256 -245.21,0 -282.182,0" style="fill:none;stroke:white;stroke-width:12px;stroke-linecap:round;"/>
        </g>
    </g>
</svg>
