<?xml version="1.0" encoding="utf-8"?>
<!-- Generator: Adobe Illustrator 22.0.1, SVG Export Plug-In . SVG Version: 6.00 Build 0)  -->
<svg version="1.1" id="Layer_1" xmlns="http://www.w3.org/2000/svg" xmlns:xlink="http://www.w3.org/1999/xlink" x="0px" y="0px"
	 viewBox="0 0 311.5 68.6" style="enable-background:new 0 0 311.5 68.6;" xml:space="preserve">
<style type="text/css">
	.st0{opacity:0.6;}
	.st1{clip-path:url(#SVGID_2_);fill:#FFFFFF;}
	.st2{opacity:0.3;}
	.st3{clip-path:url(#SVGID_4_);fill:#FFFFFF;}
	.st4{opacity:0.8;}
	.st5{clip-path:url(#SVGID_6_);fill:#FFFFFF;}
	.st6{opacity:0.1;}
	.st7{clip-path:url(#SVGID_8_);fill:#FFFFFF;}
	.st8{fill:#FFFFFF;}
</style>
<g>
	<g class="st0">
		<g>
			<defs>
				<rect id="SVGID_1_" x="9.5" y="34.2" width="38.9" height="22.2"/>
			</defs>
			<clipPath id="SVGID_2_">
				<use xlink:href="#SVGID_1_"  style="overflow:visible;"/>
			</clipPath>
			<polygon class="st1" points="37.3,35.8 46.9,42.9 11.1,54.8 11.1,44.5 			"/>
		</g>
	</g>
	<g class="st2">
		<g>
			<defs>
				<rect id="SVGID_3_" y="5.6" width="12.7" height="50.8"/>
			</defs>
			<clipPath id="SVGID_4_">
				<use xlink:href="#SVGID_3_"  style="overflow:visible;"/>
			</clipPath>
			<polygon class="st3" points="1.6,7.2 11.1,16.6 11.1,54.8 1.6,47.7 			"/>
		</g>
	</g>
	<g class="st4">
		<g>
			<defs>
				<rect id="SVGID_5_" x="35.8" y="3.2" width="12.7" height="41.3"/>
			</defs>
			<clipPath id="SVGID_6_">
				<use xlink:href="#SVGID_5_"  style="overflow:visible;"/>
			</clipPath>
			<polygon class="st5" points="46.9,4.8 46.9,42.9 37.3,35.8 37.3,11.9 			"/>
		</g>
	</g>
	<g class="st6">
		<g>
			<defs>
				<rect id="SVGID_7_" y="5.6" width="12.7" height="12.6"/>
			</defs>
			<clipPath id="SVGID_8_">
				<use xlink:href="#SVGID_7_"  style="overflow:visible;"/>
			</clipPath>
			<polygon class="st7" points="1.6,7.2 11.1,8.4 11.1,16.6 			"/>
		</g>
	</g>
	<polygon class="st8" points="37.3,11.9 46.9,4.8 11.1,0 1.6,7.2 	"/>
	<path class="st8" d="M75.8,41.9c-0.9,0.7-2,1.1-3.5,1.1c-1,0-1.9-0.1-2.7-0.4c-0.7-0.3-1.4-0.8-2.1-1.4l0.8-0.8
		c0.6,0.6,1.3,1.1,1.9,1.3c0.6,0.2,1.3,0.4,2.2,0.4c1.1,0,2-0.3,2.7-0.8c0.7-0.5,1-1.2,1-2.2c0-0.9-0.3-1.6-0.8-2
		c-0.3-0.2-0.5-0.4-0.8-0.5c-0.3-0.1-0.7-0.2-1.3-0.3l-0.9-0.1l-0.8-0.1c-1.1-0.2-1.9-0.5-2.5-1c-0.7-0.6-1.1-1.5-1.1-2.6
		c0-1.2,0.4-2.2,1.2-2.9c0.8-0.7,1.9-1.1,3.2-1.1c0.9,0,1.6,0.1,2.2,0.4c0.6,0.2,1.3,0.6,1.9,1.2l-0.7,0.7c-0.5-0.4-1-0.8-1.5-1
		c-0.5-0.2-1.2-0.3-2-0.3c-1,0-1.8,0.3-2.4,0.8c-0.6,0.5-0.9,1.2-0.9,2.2c0,0.8,0.2,1.4,0.7,1.9c0.3,0.2,0.6,0.4,1,0.5
		c0.4,0.2,0.8,0.3,1.2,0.3l0.7,0.1l0.9,0.1c0.7,0.1,1.2,0.2,1.5,0.4c0.4,0.1,0.7,0.3,1,0.6c0.4,0.3,0.7,0.7,0.9,1.2
		c0.2,0.5,0.3,1,0.3,1.6C77.1,40.3,76.6,41.2,75.8,41.9"/>
	<path class="st8" d="M88.3,41.9c-0.9,0.7-1.9,1.1-3.2,1.1c-0.7,0-1.3-0.1-1.9-0.4c-0.6-0.3-1.2-0.6-1.6-1.1c-0.3-0.3-0.6-0.7-0.8-1
		c-0.2-0.3-0.3-0.7-0.4-1.1c-0.1-0.4-0.1-0.9-0.2-1.4c0-0.5,0-1.3,0-2.2c0-1,0-1.7,0-2.2c0-0.5,0.1-1,0.2-1.4
		c0.1-0.4,0.2-0.8,0.4-1.1c0.2-0.3,0.4-0.7,0.8-1c0.5-0.5,1-0.8,1.6-1.1c0.6-0.3,1.3-0.4,1.9-0.4c1.3,0,2.3,0.4,3.2,1.1
		c0.9,0.7,1.4,1.8,1.6,3h-1.1c-0.2-1-0.7-1.8-1.3-2.3c-0.7-0.6-1.5-0.9-2.4-0.9c-1.1,0-2,0.4-2.7,1.1c-0.3,0.3-0.5,0.5-0.6,0.8
		c-0.1,0.3-0.3,0.6-0.3,1c-0.1,0.4-0.1,0.8-0.1,1.3c0,0.5,0,1.2,0,2.1c0,0.9,0,1.6,0,2.1c0,0.5,0.1,0.9,0.1,1.3
		c0.1,0.4,0.2,0.7,0.3,1c0.1,0.3,0.3,0.6,0.6,0.8c0.7,0.7,1.6,1.1,2.7,1.1c1,0,1.8-0.3,2.5-0.9c0.7-0.6,1.1-1.4,1.3-2.3h1.1
		C89.7,40.1,89.1,41.2,88.3,41.9"/>
	<path class="st8" d="M102,33.7c0-0.5-0.1-0.9-0.1-1.3c-0.1-0.4-0.2-0.7-0.3-1c-0.1-0.3-0.3-0.6-0.6-0.8c-0.7-0.7-1.6-1.1-2.7-1.1
		c-1.1,0-2,0.4-2.7,1.1c-0.3,0.3-0.5,0.5-0.6,0.8c-0.1,0.3-0.3,0.6-0.3,1c-0.1,0.4-0.1,0.8-0.1,1.3c0,0.5,0,1.2,0,2.1
		c0,0.9,0,1.6,0,2.1s0.1,0.9,0.1,1.3c0.1,0.4,0.2,0.7,0.3,1c0.1,0.3,0.3,0.6,0.6,0.8c0.7,0.7,1.6,1.1,2.7,1.1c1.1,0,2-0.4,2.7-1.1
		c0.3-0.3,0.5-0.5,0.6-0.8c0.1-0.3,0.3-0.6,0.3-1c0.1-0.4,0.1-0.8,0.1-1.3c0-0.5,0-1.2,0-2.1C102.1,34.9,102.1,34.2,102,33.7
		 M103.1,38c0,0.5-0.1,1-0.2,1.4c-0.1,0.4-0.2,0.8-0.4,1.1c-0.2,0.3-0.4,0.7-0.8,1c-0.5,0.5-1,0.8-1.6,1.1c-0.6,0.3-1.3,0.4-1.9,0.4
		c-0.7,0-1.3-0.1-1.9-0.4c-0.6-0.3-1.2-0.6-1.6-1.1c-0.3-0.3-0.6-0.7-0.8-1c-0.2-0.3-0.3-0.7-0.4-1.1c-0.1-0.4-0.1-0.9-0.2-1.4
		c0-0.5,0-1.3,0-2.2c0-1,0-1.7,0-2.2c0-0.5,0.1-1,0.2-1.4c0.1-0.4,0.2-0.8,0.4-1.1c0.2-0.3,0.4-0.7,0.8-1c0.5-0.5,1-0.8,1.6-1.1
		c0.6-0.3,1.3-0.4,1.9-0.4c0.7,0,1.3,0.1,1.9,0.4c0.6,0.3,1.2,0.6,1.6,1.1c0.3,0.3,0.6,0.7,0.8,1c0.2,0.3,0.3,0.7,0.4,1.1
		c0.1,0.4,0.1,0.9,0.2,1.4c0,0.5,0,1.3,0,2.2C103.2,36.7,103.1,37.5,103.1,38"/>
	<path class="st8" d="M122.9,30.1l-3,8.4h6L122.9,30.1z M127.4,42.9l-1.2-3.5h-6.6l-1.2,3.5h-1.2l5.2-14.3h1l5.2,14.3H127.4z"/>
	<path class="st8" d="M143.9,41.9c-0.9,0.7-2,1.1-3.5,1.1c-1,0-1.9-0.1-2.7-0.4c-0.7-0.3-1.4-0.8-2.1-1.4l0.8-0.8
		c0.6,0.6,1.3,1.1,1.9,1.3c0.6,0.2,1.3,0.4,2.2,0.4c1.1,0,2-0.3,2.7-0.8c0.7-0.5,1-1.2,1-2.2c0-0.9-0.3-1.6-0.8-2
		c-0.3-0.2-0.5-0.4-0.8-0.5c-0.3-0.1-0.7-0.2-1.3-0.3l-0.9-0.1l-0.8-0.1c-1.1-0.2-1.9-0.5-2.5-1c-0.7-0.6-1.1-1.5-1.1-2.6
		c0-1.2,0.4-2.2,1.2-2.9c0.8-0.7,1.9-1.1,3.2-1.1c0.9,0,1.6,0.1,2.2,0.4c0.6,0.2,1.3,0.6,1.9,1.2l-0.7,0.7c-0.5-0.4-1-0.8-1.5-1
		c-0.5-0.2-1.2-0.3-2-0.3c-1,0-1.8,0.3-2.4,0.8c-0.6,0.5-0.9,1.2-0.9,2.2c0,0.8,0.2,1.4,0.7,1.9c0.3,0.2,0.6,0.4,1,0.5
		c0.4,0.2,0.8,0.3,1.2,0.3l0.7,0.1l0.9,0.1c0.7,0.1,1.2,0.2,1.5,0.4c0.4,0.1,0.7,0.3,1,0.6c0.4,0.3,0.7,0.7,0.9,1.2
		c0.2,0.5,0.3,1,0.3,1.6C145.2,40.3,144.7,41.2,143.9,41.9"/>
	<path class="st8" d="M158.1,40.2c-0.2,0.6-0.6,1.1-1,1.5c-0.4,0.4-1,0.7-1.6,1c-0.6,0.2-1.3,0.3-2,0.3c-0.7,0-1.4-0.1-2-0.3
		c-0.6-0.2-1.1-0.6-1.6-1c-0.4-0.4-0.8-0.9-1-1.5c-0.2-0.6-0.4-1.2-0.4-1.9v-9.6h1.1v9.5c0,1.2,0.3,2.1,1,2.8
		c0.7,0.7,1.6,1.1,2.8,1.1c1.1,0,2.1-0.4,2.8-1.1c0.7-0.7,1-1.7,1-2.8v-9.5h1.1v9.6C158.4,39,158.3,39.6,158.1,40.2"/>
	<path class="st8" d="M170.5,30.4c-0.6-0.5-1.4-0.8-2.4-0.8h-4v6.3h4c1,0,1.8-0.3,2.4-0.8c0.6-0.5,0.9-1.3,0.9-2.4
		C171.4,31.7,171.1,30.9,170.5,30.4 M171.3,35.8c-0.8,0.7-1.8,1.1-3.1,1.1H164v6h-1.1V28.6h5.2c1.3,0,2.3,0.4,3.1,1.1
		c0.8,0.7,1.2,1.7,1.2,3C172.5,34,172.1,35,171.3,35.8"/>
	<path class="st8" d="M195.7,30.3c-0.6-0.5-1.3-0.7-2.3-0.7h-4.2v5.8h4.2c0.9,0,1.7-0.2,2.3-0.7c0.6-0.5,0.9-1.2,0.9-2.2
		C196.5,31.5,196.3,30.8,195.7,30.3 M196.5,42.9l-3.4-6.6h-3.9v6.6h-1.1V28.6h5.4c1.2,0,2.2,0.3,2.9,1c0.8,0.7,1.1,1.6,1.1,2.8
		c0,1-0.3,1.9-0.9,2.6c-0.6,0.7-1.4,1.1-2.4,1.3l3.4,6.6H196.5z"/>
	<rect x="201.6" y="28.6" class="st8" width="1.1" height="14.3"/>
	<path class="st8" d="M215.5,33.7c0-0.5-0.1-0.9-0.1-1.3c-0.1-0.4-0.2-0.7-0.3-1c-0.1-0.3-0.3-0.6-0.6-0.8c-0.7-0.7-1.6-1.1-2.7-1.1
		c-1.1,0-2,0.4-2.7,1.1c-0.3,0.3-0.5,0.5-0.6,0.8c-0.1,0.3-0.3,0.6-0.3,1c-0.1,0.4-0.1,0.8-0.1,1.3c0,0.5,0,1.2,0,2.1
		c0,0.9,0,1.6,0,2.1c0,0.5,0.1,0.9,0.1,1.3c0.1,0.4,0.2,0.7,0.3,1c0.1,0.3,0.3,0.6,0.6,0.8c0.7,0.7,1.6,1.1,2.7,1.1
		c1.1,0,2-0.4,2.7-1.1c0.3-0.3,0.5-0.5,0.6-0.8c0.1-0.3,0.3-0.6,0.3-1c0.1-0.4,0.1-0.8,0.1-1.3c0-0.5,0-1.2,0-2.1
		C215.5,34.9,215.5,34.2,215.5,33.7 M216.6,38c0,0.5-0.1,1-0.2,1.4c-0.1,0.4-0.2,0.8-0.4,1.1c-0.2,0.3-0.4,0.7-0.8,1
		c-0.5,0.5-1,0.8-1.6,1.1c-0.6,0.3-1.3,0.4-1.9,0.4c-0.7,0-1.3-0.1-1.9-0.4c-0.6-0.3-1.2-0.6-1.6-1.1c-0.3-0.3-0.6-0.7-0.8-1
		c-0.2-0.3-0.3-0.7-0.4-1.1c-0.1-0.4-0.1-0.9-0.2-1.4c0-0.5,0-1.3,0-2.2c0-1,0-1.7,0-2.2c0-0.5,0.1-1,0.2-1.4
		c0.1-0.4,0.2-0.8,0.4-1.1c0.2-0.3,0.4-0.7,0.8-1c0.5-0.5,1-0.8,1.6-1.1c0.6-0.3,1.3-0.4,1.9-0.4c0.7,0,1.3,0.1,1.9,0.4
		c0.6,0.3,1.2,0.6,1.6,1.1c0.3,0.3,0.6,0.7,0.8,1c0.2,0.3,0.3,0.7,0.4,1.1c0.1,0.4,0.1,0.9,0.2,1.4c0,0.5,0,1.3,0,2.2
		C216.6,36.7,216.6,37.5,216.6,38"/>
	<path class="st8" d="M228.3,30.3c-0.6-0.5-1.3-0.7-2.3-0.7h-4.2v5.8h4.2c0.9,0,1.7-0.2,2.3-0.7c0.6-0.5,0.9-1.2,0.9-2.2
		C229.1,31.5,228.9,30.8,228.3,30.3 M229.1,42.9l-3.4-6.6h-3.9v6.6h-1.1V28.6h5.4c1.2,0,2.2,0.3,2.9,1c0.8,0.7,1.1,1.6,1.1,2.8
		c0,1-0.3,1.9-0.9,2.6c-0.6,0.7-1.4,1.1-2.4,1.3l3.4,6.6H229.1z"/>
	<path class="st8" d="M65.1,29.6v-1h-4v0c-0.6,0-1.2,0.1-1.7,0.4c-0.6,0.2-1.2,0.6-1.6,1.1c-0.3,0.3-0.6,0.6-0.7,1
		c-0.2,0.3-0.3,0.7-0.4,1.1c-0.1,0.4-0.1,0.9-0.1,1.4c0,0.5,0,1.3,0,2.2c0,0.9,0,1.7,0,2.2c0,0.5,0.1,1,0.1,1.4
		c0.1,0.4,0.2,0.8,0.4,1.1c0.2,0.3,0.4,0.7,0.7,1c0.5,0.5,1,0.8,1.6,1.1c0.5,0.2,1.1,0.3,1.6,0.4v0h4v-1h-4
		c-0.9-0.1-1.7-0.4-2.4-1.1c-0.3-0.3-0.5-0.5-0.6-0.8c-0.1-0.3-0.3-0.6-0.3-1c-0.1-0.4-0.1-0.8-0.1-1.3c0-0.4,0-1,0-1.6h6.4v-1h-6.4
		c0-0.6,0-1.1,0-1.5c0-0.5,0.1-0.9,0.1-1.3c0.1-0.4,0.2-0.7,0.3-1c0.1-0.3,0.3-0.5,0.6-0.8c0.7-0.7,1.5-1,2.5-1.1H65.1z"/>
	<path class="st8" d="M184.5,29.6v-1h-4v0c-0.6,0-1.2,0.1-1.7,0.4c-0.6,0.2-1.2,0.6-1.6,1.1c-0.3,0.3-0.6,0.6-0.7,1
		c-0.2,0.3-0.3,0.7-0.4,1.1c-0.1,0.4-0.1,0.9-0.1,1.4c0,0.5,0,1.2,0,2.2c0,0.9,0,1.7,0,2.2c0,0.5,0.1,1,0.1,1.4
		c0.1,0.4,0.2,0.8,0.4,1.1c0.2,0.3,0.4,0.7,0.7,1c0.5,0.5,1,0.8,1.6,1.1c0.5,0.2,1.1,0.3,1.6,0.4v0h4v-1h-4
		c-0.9-0.1-1.7-0.4-2.4-1.1c-0.3-0.2-0.5-0.5-0.6-0.8c-0.1-0.3-0.3-0.6-0.3-1c-0.1-0.4-0.1-0.8-0.1-1.3c0-0.4,0-1,0-1.6h6.4v-1h-6.4
		c0-0.6,0-1.1,0-1.5c0-0.5,0.1-0.9,0.1-1.3c0.1-0.4,0.2-0.7,0.3-1c0.1-0.3,0.3-0.5,0.6-0.8c0.7-0.7,1.5-1,2.5-1.1H184.5z"/>
	<path class="st8" d="M111.9,41.9c-1,0-1.8-0.4-2.5-1.1c-0.3-0.3-0.5-0.5-0.6-0.8c-0.1-0.3-0.3-0.6-0.3-1c-0.1-0.4-0.1-0.8-0.1-1.3
		c0-0.2,0-0.4,0-0.6v-8.5h-1.1v8.8h0c0,0.2,0,0.4,0,0.5c0,0.5,0.1,1,0.1,1.4c0.1,0.4,0.2,0.8,0.4,1.1c0.2,0.3,0.4,0.7,0.7,1
		c0.5,0.5,1,0.8,1.6,1.1c0.6,0.2,1.1,0.3,1.7,0.4v0h4v-1H111.9z"/>
	<path class="st8" d="M64.9,54c-0.1-0.8-0.4-1.4-0.9-1.8c-0.4-0.4-0.8-0.7-1.4-0.9c-0.5-0.2-1.1-0.3-1.7-0.3h-3.4v12.4h3.4
		c0.6,0,1.2-0.1,1.7-0.3c0.5-0.2,1-0.5,1.4-0.9c0.5-0.5,0.7-1.1,0.9-2c0.1-0.8,0.2-2,0.2-3.3C65.1,55.8,65,54.8,64.9,54 M66.1,58.9
		c0,0.5-0.1,1.1-0.2,1.6c-0.1,0.5-0.2,1-0.4,1.4c-0.2,0.4-0.4,0.8-0.8,1.1c-0.9,0.9-2.1,1.3-3.6,1.3h-4.8V50.1h4.8
		c1.5,0,2.7,0.4,3.6,1.3c0.6,0.6,1,1.3,1.1,2.2c0.2,0.9,0.2,2,0.2,3.5C66.1,57.7,66.1,58.4,66.1,58.9"/>
	<path class="st8" d="M94.7,63.3c-0.9,0.8-2,1.1-3.4,1.1c-1.5,0-2.7-0.5-3.7-1.5c-0.3-0.3-0.6-0.7-0.8-1.1c-0.2-0.4-0.3-0.8-0.4-1.2
		c-0.1-0.4-0.1-0.9-0.2-1.4c0-0.5,0-1.2,0-2.1c0-0.9,0-1.6,0-2.1c0-0.5,0.1-0.9,0.2-1.4c0.1-0.4,0.2-0.8,0.4-1.2
		c0.2-0.4,0.4-0.7,0.8-1.1c1-1,2.3-1.5,3.7-1.5c1.3,0,2.5,0.4,3.4,1.1c0.9,0.8,1.5,1.8,1.7,3.2h-2.2c-0.2-0.8-0.5-1.3-1-1.8
		c-0.5-0.4-1.1-0.7-1.9-0.7c-0.4,0-0.8,0.1-1.2,0.2c-0.4,0.2-0.7,0.4-0.9,0.6c-0.2,0.2-0.3,0.4-0.4,0.6c-0.1,0.2-0.2,0.5-0.3,0.8
		c-0.1,0.3-0.1,0.7-0.1,1.2c0,0.5,0,1.1,0,1.8c0,0.7,0,1.4,0,1.8c0,0.5,0.1,0.9,0.1,1.2c0.1,0.3,0.1,0.6,0.3,0.8
		c0.1,0.2,0.3,0.4,0.4,0.6c0.3,0.3,0.6,0.5,0.9,0.6c0.4,0.2,0.8,0.2,1.2,0.2c0.8,0,1.4-0.2,1.9-0.7c0.5-0.4,0.8-1,1-1.8h2.2
		C96.2,61.5,95.6,62.6,94.7,63.3"/>
	<path class="st8" d="M107.8,55.4c0-0.5-0.1-0.9-0.1-1.2c-0.1-0.3-0.1-0.6-0.2-0.8c-0.1-0.2-0.3-0.4-0.4-0.6
		c-0.3-0.3-0.6-0.5-0.9-0.7c-0.4-0.2-0.8-0.2-1.2-0.2c-0.4,0-0.8,0.1-1.2,0.2c-0.4,0.2-0.7,0.4-0.9,0.7c-0.2,0.2-0.3,0.4-0.4,0.6
		c-0.1,0.2-0.2,0.5-0.3,0.8c-0.1,0.3-0.1,0.7-0.1,1.2c0,0.5,0,1.1,0,1.8c0,0.7,0,1.3,0,1.8c0,0.5,0.1,0.9,0.1,1.2
		c0.1,0.3,0.1,0.6,0.2,0.8c0.1,0.2,0.2,0.4,0.4,0.6c0.3,0.3,0.6,0.5,0.9,0.6c0.4,0.2,0.8,0.2,1.2,0.2c0.4,0,0.8-0.1,1.2-0.2
		c0.4-0.2,0.7-0.4,0.9-0.6c0.2-0.2,0.3-0.4,0.4-0.6c0.1-0.2,0.2-0.5,0.3-0.8c0.1-0.3,0.1-0.7,0.1-1.2c0-0.5,0-1.1,0-1.8
		C107.9,56.5,107.9,55.9,107.8,55.4 M110,59.3c0,0.5-0.1,1-0.2,1.4c-0.1,0.4-0.2,0.8-0.4,1.2c-0.2,0.4-0.4,0.7-0.8,1
		c-1,1-2.3,1.5-3.8,1.5c-1.5,0-2.7-0.5-3.7-1.5c-0.3-0.3-0.6-0.7-0.8-1.1c-0.2-0.4-0.3-0.8-0.4-1.2c-0.1-0.4-0.1-0.9-0.2-1.4
		c0-0.5,0-1.2,0-2.1c0-0.9,0-1.6,0-2.1c0-0.5,0.1-0.9,0.2-1.4c0.1-0.4,0.2-0.8,0.4-1.2c0.2-0.4,0.4-0.7,0.8-1.1c1-1,2.3-1.5,3.7-1.5
		c1.5,0,2.7,0.5,3.8,1.5c0.3,0.3,0.6,0.7,0.8,1c0.2,0.4,0.3,0.8,0.4,1.2c0.1,0.4,0.1,0.9,0.2,1.4c0,0.5,0,1.2,0,2.1
		C110,58.1,110,58.8,110,59.3"/>
	<polygon class="st8" points="124.6,64.4 124.6,54.8 121.4,61.8 119.8,61.8 116.4,54.8 116.4,64.4 114.2,64.4 114.2,50.1 
		116.4,50.1 120.6,59 124.6,50.1 126.8,50.1 126.8,64.4 	"/>
	<path class="st8" d="M141.1,61.6c-0.3,0.6-0.6,1.1-1.1,1.6c-0.5,0.4-1,0.8-1.6,1c-0.6,0.2-1.3,0.3-2,0.3c-0.7,0-1.4-0.1-2-0.3
		c-0.6-0.2-1.2-0.6-1.6-1c-0.5-0.4-0.8-1-1.1-1.6c-0.3-0.6-0.4-1.3-0.4-2v-9.5h2.2v9.4c0,0.9,0.3,1.7,0.8,2.3
		c0.5,0.6,1.3,0.8,2.1,0.8c0.9,0,1.6-0.3,2.2-0.8c0.5-0.6,0.8-1.3,0.8-2.3v-9.4h2.2v9.5C141.5,60.3,141.4,60.9,141.1,61.6"/>
	<polygon class="st8" points="154.8,64.4 150.5,57.8 148.2,54.3 148.2,64.4 146,64.4 146,50.1 148,50.1 152.1,56.3 154.6,60.1 
		154.6,50.1 156.8,50.1 156.8,64.4 	"/>
	<rect x="161.5" y="50.1" class="st8" width="2.2" height="14.3"/>
	<path class="st8" d="M176.3,63.3c-0.9,0.8-2,1.1-3.4,1.1c-1.5,0-2.7-0.5-3.7-1.5c-0.3-0.3-0.6-0.7-0.8-1.1
		c-0.2-0.4-0.3-0.8-0.4-1.2c-0.1-0.4-0.1-0.9-0.2-1.4c0-0.5,0-1.2,0-2.1c0-0.9,0-1.6,0-2.1c0-0.5,0.1-0.9,0.2-1.4
		c0.1-0.4,0.2-0.8,0.4-1.2c0.2-0.4,0.4-0.7,0.8-1.1c1-1,2.3-1.5,3.7-1.5c1.3,0,2.5,0.4,3.4,1.1c0.9,0.8,1.5,1.8,1.7,3.2h-2.2
		c-0.2-0.8-0.5-1.3-1-1.8c-0.5-0.4-1.1-0.7-1.9-0.7c-0.4,0-0.8,0.1-1.2,0.2c-0.4,0.2-0.7,0.4-0.9,0.6c-0.2,0.2-0.3,0.4-0.4,0.6
		c-0.1,0.2-0.2,0.5-0.3,0.8c-0.1,0.3-0.1,0.7-0.1,1.2c0,0.5,0,1.1,0,1.8c0,0.7,0,1.4,0,1.8c0,0.5,0.1,0.9,0.1,1.2
		c0.1,0.3,0.1,0.6,0.2,0.8c0.1,0.2,0.3,0.4,0.4,0.6c0.3,0.3,0.6,0.5,0.9,0.6c0.4,0.2,0.8,0.2,1.2,0.2c0.8,0,1.4-0.2,1.9-0.7
		c0.5-0.4,0.8-1,1-1.8h2.2C177.8,61.5,177.2,62.6,176.3,63.3"/>
	<path class="st8" d="M186.2,53.3l-2.2,6.3h4.4L186.2,53.3z M189.9,64.4l-1-2.9h-5.6l-1,2.9H180l5.2-14.3h1.7l5.2,14.3H189.9z"/>
	<path class="st8" d="M199.7,68.6h-2l1.4-2.9h1.6L199.7,68.6z M203,63.3c-0.9,0.8-2,1.1-3.4,1.1c-1.5,0-2.7-0.5-3.7-1.5
		c-0.3-0.3-0.6-0.7-0.8-1.1c-0.2-0.4-0.3-0.8-0.4-1.2c-0.1-0.4-0.1-0.9-0.2-1.4c0-0.5,0-1.2,0-2.1c0-0.9,0-1.6,0-2.1
		c0-0.5,0.1-0.9,0.2-1.4c0.1-0.4,0.2-0.8,0.4-1.2c0.2-0.4,0.4-0.7,0.8-1.1c1-1,2.3-1.5,3.7-1.5c1.3,0,2.5,0.4,3.4,1.1
		c0.9,0.8,1.5,1.8,1.7,3.2h-2.2c-0.2-0.8-0.5-1.3-1-1.8c-0.5-0.4-1.1-0.7-1.9-0.7c-0.4,0-0.8,0.1-1.2,0.2c-0.4,0.2-0.7,0.4-0.9,0.6
		c-0.2,0.2-0.3,0.4-0.4,0.6c-0.1,0.2-0.2,0.5-0.3,0.8c-0.1,0.3-0.1,0.7-0.1,1.2c0,0.5,0,1.1,0,1.8c0,0.7,0,1.4,0,1.8
		c0,0.5,0.1,0.9,0.1,1.2c0.1,0.3,0.1,0.6,0.2,0.8c0.1,0.2,0.3,0.4,0.4,0.6c0.3,0.3,0.6,0.5,0.9,0.6c0.4,0.2,0.8,0.2,1.2,0.2
		c0.8,0,1.4-0.2,1.9-0.7c0.5-0.4,0.8-1,1-1.8h2.2C204.5,61.5,203.9,62.6,203,63.3"/>
	<path class="st8" d="M213.1,53.3l-2.2,6.3h4.4L213.1,53.3z M215.2,48.2c-0.3,0.2-0.6,0.2-1,0.2c-0.3,0-0.5,0-0.8-0.1
		c-0.2-0.1-0.5-0.2-0.8-0.3c-0.4-0.3-0.8-0.4-1.1-0.4c-0.2,0-0.4,0-0.5,0.1c-0.2,0.1-0.4,0.2-0.6,0.5l-1-0.9
		c0.4-0.4,0.8-0.7,1.1-0.9c0.3-0.2,0.6-0.2,1-0.2c0.3,0,0.5,0,0.7,0.1c0.2,0.1,0.5,0.2,0.8,0.4c0.4,0.3,0.8,0.4,1.1,0.4
		c0.2,0,0.4,0,0.5-0.1c0.2-0.1,0.4-0.2,0.6-0.5l1,0.9C215.9,47.8,215.5,48.1,215.2,48.2 M216.8,64.4l-1-2.9h-5.6l-1,2.9h-2.3
		l5.2-14.3h1.7l5.2,14.3H216.8z"/>
	<path class="st8" d="M229.5,55.4c0-0.5-0.1-0.9-0.1-1.2c-0.1-0.3-0.1-0.6-0.2-0.8c-0.1-0.2-0.3-0.4-0.4-0.6
		c-0.3-0.3-0.6-0.5-0.9-0.7c-0.4-0.2-0.8-0.2-1.2-0.2c-0.4,0-0.8,0.1-1.2,0.2c-0.4,0.2-0.7,0.4-0.9,0.7c-0.2,0.2-0.3,0.4-0.4,0.6
		c-0.1,0.2-0.2,0.5-0.2,0.8c-0.1,0.3-0.1,0.7-0.1,1.2c0,0.5,0,1.1,0,1.8c0,0.7,0,1.3,0,1.8c0,0.5,0.1,0.9,0.1,1.2
		c0.1,0.3,0.1,0.6,0.2,0.8c0.1,0.2,0.2,0.4,0.4,0.6c0.3,0.3,0.6,0.5,0.9,0.6c0.4,0.2,0.8,0.2,1.2,0.2c0.4,0,0.8-0.1,1.2-0.2
		c0.4-0.2,0.7-0.4,0.9-0.6c0.2-0.2,0.3-0.4,0.4-0.6c0.1-0.2,0.2-0.5,0.3-0.8c0.1-0.3,0.1-0.7,0.1-1.2c0-0.5,0-1.1,0-1.8
		C229.5,56.5,229.5,55.9,229.5,55.4 M231.6,59.3c0,0.5-0.1,1-0.2,1.4c-0.1,0.4-0.2,0.8-0.4,1.2c-0.2,0.4-0.4,0.7-0.8,1
		c-1,1-2.3,1.5-3.8,1.5c-1.5,0-2.7-0.5-3.7-1.5c-0.3-0.3-0.6-0.7-0.8-1.1c-0.2-0.4-0.3-0.8-0.4-1.2c-0.1-0.4-0.1-0.9-0.2-1.4
		c0-0.5,0-1.2,0-2.1c0-0.9,0-1.6,0-2.1c0-0.5,0.1-0.9,0.2-1.4c0.1-0.4,0.2-0.8,0.4-1.2c0.2-0.4,0.4-0.7,0.8-1.1c1-1,2.3-1.5,3.7-1.5
		c1.5,0,2.7,0.5,3.8,1.5c0.3,0.3,0.6,0.7,0.8,1c0.2,0.4,0.3,0.8,0.4,1.2c0.1,0.4,0.1,0.9,0.2,1.4c0,0.5,0,1.2,0,2.1
		C231.7,58.1,231.7,58.8,231.6,59.3"/>
	<path class="st8" d="M249.2,63.4c-0.9,0.7-2.2,1.1-3.7,1.1c-1.1,0-2-0.1-2.8-0.4c-0.8-0.3-1.5-0.8-2.2-1.4l1.4-1.4
		c0.5,0.5,1,0.8,1.6,1.1c0.6,0.2,1.2,0.3,2,0.3c0.9,0,1.7-0.2,2.2-0.6c0.5-0.4,0.8-0.9,0.8-1.6c0-0.7-0.2-1.1-0.6-1.5
		c-0.2-0.2-0.4-0.3-0.6-0.4c-0.2-0.1-0.5-0.2-1-0.2l-0.8-0.1l-0.8-0.1c-1.2-0.2-2.1-0.5-2.7-1.1c-0.7-0.7-1-1.6-1-2.7
		c0-1.3,0.4-2.3,1.3-3c0.9-0.8,2-1.2,3.5-1.2c0.9,0,1.8,0.1,2.5,0.4c0.7,0.3,1.4,0.7,2,1.2l-1.4,1.4c-0.4-0.4-0.9-0.7-1.4-0.9
		c-0.5-0.2-1.1-0.3-1.7-0.3c-0.8,0-1.5,0.2-1.9,0.6c-0.5,0.4-0.7,0.9-0.7,1.6c0,0.6,0.2,1,0.5,1.3c0.4,0.3,0.9,0.6,1.6,0.7l0.8,0.1
		l0.8,0.1c0.7,0.1,1.2,0.2,1.6,0.4c0.4,0.2,0.8,0.4,1.1,0.7c0.8,0.7,1.2,1.7,1.2,2.9C250.6,61.6,250.1,62.6,249.2,63.4"/>
	<path class="st8" d="M262,55.4c0-0.5-0.1-0.9-0.1-1.2c-0.1-0.3-0.1-0.6-0.2-0.8c-0.1-0.2-0.3-0.4-0.4-0.6c-0.3-0.3-0.6-0.5-0.9-0.7
		c-0.4-0.2-0.8-0.2-1.2-0.2c-0.4,0-0.8,0.1-1.2,0.2c-0.4,0.2-0.7,0.4-0.9,0.7c-0.2,0.2-0.3,0.4-0.4,0.6c-0.1,0.2-0.2,0.5-0.3,0.8
		c-0.1,0.3-0.1,0.7-0.1,1.2c0,0.5,0,1.1,0,1.8c0,0.7,0,1.3,0,1.8c0,0.5,0.1,0.9,0.1,1.2c0.1,0.3,0.1,0.6,0.2,0.8
		c0.1,0.2,0.2,0.4,0.4,0.6c0.3,0.3,0.6,0.5,0.9,0.6c0.4,0.2,0.8,0.2,1.2,0.2c0.4,0,0.8-0.1,1.2-0.2c0.4-0.2,0.7-0.4,0.9-0.6
		c0.2-0.2,0.3-0.4,0.4-0.6c0.1-0.2,0.2-0.5,0.3-0.8c0.1-0.3,0.1-0.7,0.1-1.2c0-0.5,0-1.1,0-1.8C262.1,56.5,262.1,55.9,262,55.4
		 M264.2,59.3c0,0.5-0.1,1-0.2,1.4c-0.1,0.4-0.2,0.8-0.4,1.2c-0.2,0.4-0.4,0.7-0.8,1c-1,1-2.3,1.5-3.8,1.5c-1.5,0-2.7-0.5-3.7-1.5
		c-0.3-0.3-0.6-0.7-0.8-1.1c-0.2-0.4-0.3-0.8-0.4-1.2c-0.1-0.4-0.1-0.9-0.2-1.4c0-0.5,0-1.2,0-2.1c0-0.9,0-1.6,0-2.1
		c0-0.5,0.1-0.9,0.2-1.4c0.1-0.4,0.2-0.8,0.4-1.2c0.2-0.4,0.4-0.7,0.8-1.1c1-1,2.3-1.5,3.7-1.5c1.5,0,2.7,0.5,3.8,1.5
		c0.3,0.3,0.6,0.7,0.8,1c0.2,0.4,0.3,0.8,0.4,1.2c0.1,0.4,0.1,0.9,0.2,1.4c0,0.5,0,1.2,0,2.1C264.2,58.1,264.2,58.8,264.2,59.3"/>
	<path class="st8" d="M276.4,63.3c-0.9,0.8-2,1.1-3.4,1.1c-1.5,0-2.7-0.5-3.7-1.5c-0.3-0.3-0.6-0.7-0.8-1.1
		c-0.2-0.4-0.3-0.8-0.4-1.2c-0.1-0.4-0.1-0.9-0.2-1.4c0-0.5,0-1.2,0-2.1c0-0.9,0-1.6,0-2.1c0-0.5,0.1-0.9,0.2-1.4
		c0.1-0.4,0.2-0.8,0.4-1.2c0.2-0.4,0.4-0.7,0.8-1.1c1-1,2.3-1.5,3.7-1.5c1.3,0,2.5,0.4,3.4,1.1c0.9,0.8,1.5,1.8,1.7,3.2h-2.2
		c-0.2-0.8-0.5-1.3-1-1.8c-0.5-0.4-1.1-0.7-1.9-0.7c-0.4,0-0.8,0.1-1.2,0.2c-0.4,0.2-0.7,0.4-0.9,0.6c-0.2,0.2-0.3,0.4-0.4,0.6
		c-0.1,0.2-0.2,0.5-0.3,0.8c-0.1,0.3-0.1,0.7-0.1,1.2c0,0.5,0,1.1,0,1.8c0,0.7,0,1.4,0,1.8c0,0.5,0.1,0.9,0.1,1.2
		c0.1,0.3,0.1,0.6,0.2,0.8c0.1,0.2,0.3,0.4,0.4,0.6c0.3,0.3,0.6,0.5,0.9,0.6c0.4,0.2,0.8,0.2,1.2,0.2c0.8,0,1.4-0.2,1.9-0.7
		c0.5-0.4,0.8-1,1-1.8h2.2C277.9,61.5,277.3,62.6,276.4,63.3"/>
	<rect x="282" y="50.1" class="st8" width="2.2" height="14.3"/>
	<path class="st8" d="M293.3,53.3l-2.2,6.3h4.4L293.3,53.3z M297.1,64.4l-1-2.9h-5.6l-1,2.9h-2.3l5.2-14.3h1.7l5.2,14.3H297.1z"/>
	<path class="st8" d="M78.6,51.1v-1h-4v0c-0.6,0-1.2,0.1-1.7,0.4c-0.6,0.2-1.2,0.6-1.6,1.1c-0.3,0.3-0.6,0.6-0.7,1
		c-0.2,0.3-0.3,0.7-0.4,1.1C70.1,54.1,70,54.5,70,55c0,0.5,0,1.2,0,2.2c0,0.9,0,1.7,0,2.2c0,0.5,0.1,1,0.1,1.4
		c0.1,0.4,0.2,0.8,0.4,1.1c0.2,0.3,0.4,0.7,0.7,1c0.5,0.5,1,0.8,1.6,1.1c0.5,0.2,1.1,0.3,1.6,0.4v0h4v-1h-4
		c-0.9-0.1-1.7-0.4-2.4-1.1c-0.3-0.3-0.5-0.5-0.6-0.8c-0.1-0.3-0.3-0.6-0.3-1c-0.1-0.4-0.1-0.8-0.1-1.3c0-0.4,0-1,0-1.6h6.4v-1h-6.4
		c0-0.6,0-1.1,0-1.5c0-0.5,0.1-0.9,0.1-1.3c0.1-0.4,0.2-0.7,0.3-1c0.1-0.3,0.3-0.5,0.6-0.8c0.7-0.7,1.5-1,2.5-1.1H78.6z"/>
	<path class="st8" d="M307.4,62.5c-0.4,0-0.7-0.1-1-0.2c-0.4-0.2-0.7-0.4-0.9-0.6c-0.2-0.2-0.3-0.4-0.4-0.6
		c-0.1-0.2-0.2-0.5-0.3-0.8c-0.1-0.3-0.1-0.7-0.1-1.2c0-0.3,0-0.6,0-0.9l0,0v-8h-2.2v8.6h0c0,0.2,0,0.4,0,0.5c0,0.5,0.1,0.9,0.1,1.4
		c0.1,0.4,0.2,0.8,0.4,1.2c0.2,0.4,0.5,0.7,0.8,1c1,0.9,2.1,1.4,3.5,1.5v0h4.2v-1.9H307.4z"/>
</g>
</svg>
