<svg xmlns="http://www.w3.org/2000/svg" viewBox="0 0 51.17676 77.07373">
  <title>logo_dark</title>
  <g id="Layer_2" data-name="Layer 2">
    <g id="Rulers">
      <g>
        <g>
          <polygon points="0.5 63.808 0.5 10.438 29.78 0.548 50.677 13.278 50.677 66.677 21.378 76.526 0.5 63.808" fill="#fff"/>
          <path d="M29.71875,1.09668l20.458,12.46191V66.31738L21.439,75.97754,1,63.52686V10.79736L29.71875,1.09668M29.84082,0,0,10.07959V64.08887L21.31641,77.07373l29.86035-10.0376V12.99658L29.84082,0Z" fill="#231f20"/>
        </g>
        <polygon points="29.841 3.652 3.405 12.596 3.405 22.923 21.316 33.834 28.85 31.292 28.85 24.148 28.85 20.961 16.915 13.689 19.441 12.835 31.396 20.099 31.396 24.146 31.396 30.429 37.076 28.512 37.076 28.51 37.658 28.314 37.658 24.146 37.658 17.985 25.73 10.717 28.256 9.864 40.205 17.124 40.211 17.122 40.211 24.141 40.211 27.447 47.752 24.903 47.752 14.574 29.841 3.652" fill="#1d1e1c"/>
        <polygon points="38.995 54.763 47.785 51.796 47.785 28.309 37.459 31.793 37.459 31.795 21.343 37.234 3.431 26.323 3.431 36.669 3.431 36.829 21.343 47.74 28.901 45.189 37.691 42.223 37.691 45.698 37.459 45.776 37.459 45.776 21.343 51.215 3.431 40.304 3.431 62.532 21.343 73.443 47.785 64.518 47.785 55.271 47.553 55.349 31.436 60.788 31.436 57.313 38.995 54.763" fill="#1d1e1c"/>
      </g>
    </g>
  </g>
</svg>
