<svg xmlns="http://www.w3.org/2000/svg" viewBox="0 0 46.13526 46.13526">
  <title>social_ig</title>
  <g id="Layer_2" data-name="Layer 2">
    <g id="Rulers">
      <g>
        <path d="M23.0667,27.68562a4.61053,4.61053,0,1,0-4.61613-4.61892A4.62537,4.62537,0,0,0,23.0667,27.68562Z" fill="#fff"/>
        <polygon points="33.151 17.418 33.151 13.547 33.151 12.971 32.572 12.973 28.703 12.985 28.718 17.433 33.151 17.418" fill="#fff"/>
        <path d="M23.06763,0A23.06763,23.06763,0,1,0,46.13526,23.06763,23.09388,23.09388,0,0,0,23.06763,0Zm13.119,20.37582V31.11705a5.07585,5.07585,0,0,1-5.0705,5.07143h-16.097a5.07524,5.07524,0,0,1-5.07049-5.07143v-16.097a5.075,5.075,0,0,1,5.07049-5.07049h16.096a5.07584,5.07584,0,0,1,5.07143,5.07049Z" fill="#fff"/>
        <path d="M30.24363,23.06763a7.17554,7.17554,0,1,1-13.8233-2.69181H12.50387V31.11705a2.51392,2.51392,0,0,0,2.51434,2.51248H31.11426a2.51511,2.51511,0,0,0,2.51435-2.51248V20.37582H29.71029A7.07768,7.07768,0,0,1,30.24363,23.06763Z" fill="#fff"/>
      </g>
    </g>
  </g>
</svg>
