<svg xmlns="http://www.w3.org/2000/svg" viewBox="0 0 46.13526 46.13526">
  <title>social_yt</title>
  <g id="Layer_2" data-name="Layer 2">
    <g id="Rulers">
      <g>
        <path d="M18.86425,28.1234c3.46144-1.79491,6.89268-3.5733,10.35554-5.36916-3.47324-1.81237-6.90354-3.60114-10.35554-5.40266Z" fill="#fff"/>
        <path d="M23.06763,0A23.06763,23.06763,0,1,0,46.13526,23.06763,23.06788,23.06788,0,0,0,23.06763,0ZM38.78477,30.76738a4.11529,4.11529,0,0,1-3.52138,3.2,109.2359,109.2359,0,0,1-12.1967.45168,109.27815,109.27815,0,0,1-12.19859-.45168,4.11206,4.11206,0,0,1-3.51949-3.2,34.8703,34.8703,0,0,1-.56779-7.69975,34.86954,34.86954,0,0,1,.57439-7.69975,4.11369,4.11369,0,0,1,3.5195-3.20091,109.39075,109.39075,0,0,1,12.19859-.45121,109.3444,109.3444,0,0,1,12.19623.45121,4.11422,4.11422,0,0,1,3.52138,3.20091,34.86686,34.86686,0,0,1,.56306,7.69975A34.86935,34.86935,0,0,1,38.78477,30.76738Z" fill="#fff"/>
      </g>
    </g>
  </g>
</svg>
