<?xml version="1.0" encoding="utf-8"?>
<!-- Generator: Adobe Illustrator 22.0.1, SVG Export Plug-In . SVG Version: 6.00 Build 0)  -->
<svg version="1.1" id="Layer_1" xmlns="http://www.w3.org/2000/svg" xmlns:xlink="http://www.w3.org/1999/xlink" x="0px" y="0px"
	 viewBox="0 0 88.3 27.1" style="enable-background:new 0 0 88.3 27.1;" xml:space="preserve">
<style type="text/css">
	.st0{clip-path:url(#SVGID_2_);fill:#231F20;}
</style>
<g>
	<defs>
		<rect id="SVGID_1_" width="88.3" height="27.1"/>
	</defs>
	<clipPath id="SVGID_2_">
		<use xlink:href="#SVGID_1_"  style="overflow:visible;"/>
	</clipPath>
	<path class="st0" d="M21.9,24.7l6.1-5.2c0.6-0.5,1.1-1,1.5-1.4c0.4-0.4,0.8-0.8,1-1.2c0.3-0.4,0.4-0.7,0.6-1.1
		c0.1-0.4,0.2-0.7,0.2-1.1c0-0.9-0.3-1.6-0.8-2c-0.5-0.5-1.2-0.7-2-0.7c-0.8,0-1.5,0.2-2.1,0.7c-0.6,0.4-1.3,1.1-2,2l-2.2-1.7
		c0.4-0.6,0.8-1.1,1.3-1.6c0.4-0.5,0.9-0.9,1.4-1.2c0.5-0.3,1.1-0.6,1.7-0.7c0.6-0.2,1.3-0.3,2.1-0.3c0.9,0,1.6,0.1,2.4,0.4
		c0.7,0.3,1.3,0.6,1.8,1.1c0.5,0.5,0.9,1,1.2,1.7s0.4,1.4,0.4,2.2v0c0,0.7-0.1,1.3-0.3,1.9c-0.2,0.6-0.5,1.1-0.8,1.6
		c-0.4,0.5-0.9,1.1-1.4,1.6c-0.6,0.5-1.3,1.1-2,1.8l-3.6,3h8.4v2.7H21.9V24.7z"/>
	<path class="st0" d="M45.3,24.3c0.9,0,1.7-0.2,2.4-0.5c0.7-0.3,1.3-0.8,1.9-1.3c0.5-0.6,0.9-1.2,1.2-2c0.3-0.8,0.4-1.6,0.4-2.4V18
		c0-0.9-0.1-1.7-0.4-2.4c-0.3-0.8-0.7-1.4-1.2-2c-0.5-0.6-1.2-1-1.9-1.4c-0.7-0.3-1.5-0.5-2.4-0.5c-0.9,0-1.7,0.2-2.4,0.5
		c-0.7,0.3-1.4,0.8-1.9,1.3c-0.5,0.6-0.9,1.2-1.2,2c-0.3,0.8-0.4,1.6-0.4,2.4v0c0,0.9,0.1,1.7,0.4,2.4c0.3,0.8,0.7,1.4,1.2,2
		c0.5,0.6,1.2,1,1.9,1.4C43.6,24.1,44.4,24.3,45.3,24.3 M45.3,27.1c-1.4,0-2.6-0.2-3.7-0.7c-1.1-0.5-2.1-1.1-2.9-2
		c-0.8-0.8-1.4-1.8-1.9-2.9c-0.5-1.1-0.7-2.3-0.7-3.5V18c0-1.3,0.2-2.4,0.7-3.5c0.5-1.1,1.1-2.1,1.9-2.9c0.8-0.8,1.8-1.5,2.9-2
		C42.7,9,44,8.8,45.3,8.8c1.4,0,2.6,0.2,3.7,0.7c1.1,0.5,2.1,1.1,2.9,2c0.8,0.8,1.4,1.8,1.9,2.9c0.5,1.1,0.7,2.3,0.7,3.5v0
		c0,1.3-0.2,2.4-0.7,3.5c-0.5,1.1-1.1,2.1-1.9,2.9c-0.8,0.8-1.8,1.5-2.9,2C47.9,26.9,46.6,27.1,45.3,27.1"/>
	<path class="st0" d="M55.7,24.7l6.1-5.2c0.6-0.5,1.1-1,1.5-1.4c0.4-0.4,0.8-0.8,1-1.2c0.3-0.4,0.4-0.7,0.6-1.1
		c0.1-0.4,0.2-0.7,0.2-1.1c0-0.9-0.3-1.6-0.8-2c-0.5-0.5-1.2-0.7-2-0.7c-0.8,0-1.5,0.2-2.1,0.7c-0.6,0.4-1.3,1.1-2,2L56,12.9
		c0.4-0.6,0.8-1.1,1.3-1.6c0.4-0.5,0.9-0.9,1.4-1.2c0.5-0.3,1.1-0.6,1.7-0.7c0.6-0.2,1.3-0.3,2.1-0.3c0.9,0,1.6,0.1,2.4,0.4
		c0.7,0.3,1.3,0.6,1.8,1.1c0.5,0.5,0.9,1,1.2,1.7c0.3,0.7,0.4,1.4,0.4,2.2v0c0,0.7-0.1,1.3-0.3,1.9c-0.2,0.6-0.5,1.1-0.8,1.6
		c-0.4,0.5-0.9,1.1-1.4,1.6c-0.6,0.5-1.3,1.1-2,1.8l-3.6,3h8.4v2.7H55.7V24.7z"/>
	<path class="st0" d="M79.1,24.3c0.9,0,1.7-0.2,2.4-0.5c0.7-0.3,1.4-0.8,1.9-1.3c0.5-0.6,0.9-1.2,1.2-2c0.3-0.8,0.4-1.6,0.4-2.4V18
		c0-0.9-0.1-1.7-0.4-2.4c-0.3-0.8-0.7-1.4-1.2-2c-0.5-0.6-1.2-1-1.9-1.4c-0.7-0.3-1.5-0.5-2.4-0.5c-0.9,0-1.7,0.2-2.4,0.5
		c-0.7,0.3-1.4,0.8-1.9,1.3c-0.5,0.6-0.9,1.2-1.2,2c-0.3,0.8-0.4,1.6-0.4,2.4v0c0,0.9,0.1,1.7,0.4,2.4c0.3,0.8,0.7,1.4,1.2,2
		c0.5,0.6,1.2,1,1.9,1.4C77.5,24.1,78.3,24.3,79.1,24.3 M79.1,27.1c-1.4,0-2.6-0.2-3.7-0.7c-1.1-0.5-2.1-1.1-2.9-2
		c-0.8-0.8-1.4-1.8-1.9-2.9c-0.5-1.1-0.7-2.3-0.7-3.5V18c0-1.3,0.2-2.4,0.7-3.5c0.5-1.1,1.1-2.1,1.9-2.9c0.8-0.8,1.8-1.5,2.9-2
		c1.1-0.5,2.4-0.7,3.7-0.7c1.4,0,2.6,0.2,3.7,0.7c1.1,0.5,2.1,1.1,2.9,2c0.8,0.8,1.4,1.8,1.9,2.9c0.5,1.1,0.7,2.3,0.7,3.5v0
		c0,1.3-0.2,2.4-0.7,3.5c-0.5,1.1-1.1,2.1-1.9,2.9c-0.8,0.8-1.8,1.5-2.9,2C81.7,26.9,80.4,27.1,79.1,27.1"/>
	<path class="st0" d="M54.8,5.1V4.5c0.2,0,0.4-0.1,0.6-0.1V0.8c-0.2,0-0.4-0.1-0.6-0.1V0.1H57v0.6c-0.2,0-0.4,0.1-0.6,0.1v3.5h0.9
		c0-0.2,0.1-0.4,0.1-0.6h0.7v1.4H54.8z M52.2,1.8C52.1,1.6,52.1,1.3,52,1h0c-0.1,0.2-0.1,0.5-0.2,0.8l-0.4,1.2h1.3L52.2,1.8z
		 M52.6,5.1V4.5c0.2,0,0.4-0.1,0.5-0.1l-0.2-0.6h-1.8l-0.2,0.6c0.2,0,0.4,0.1,0.5,0.1v0.6h-1.9V4.5c0.1,0,0.3-0.1,0.4-0.1l1.5-4.3
		h1.2l1.5,4.3c0.1,0,0.3,0,0.4,0.1v0.6H52.6z M49.2,3.1v1.7C48.7,5,48,5.1,47.4,5.1c-1.6,0-2.5-0.9-2.5-2.5C45,1.1,46,0,47.7,0
		c0.5,0,0.9,0.1,1.4,0.2v1.3h-0.7c0-0.2-0.1-0.4-0.1-0.6c-0.2-0.1-0.4-0.1-0.6-0.1c-1,0-1.7,0.6-1.7,1.7c0,1.1,0.6,1.7,1.6,1.7
		c0.2,0,0.4,0,0.6-0.1v-1c-0.2,0-0.4-0.1-0.6-0.1V2.5h2v0.6C49.4,3.1,49.3,3.1,49.2,3.1 M44.2,0.8v2.4c0,1.3-0.7,2-2,2
		c-1.6,0-1.9-0.9-1.9-1.8V0.8c-0.2,0-0.3,0-0.5-0.1V0.1h1.9v0.6c-0.2,0-0.4,0.1-0.5,0.1v2.5c0,0.6,0.2,1.1,1,1.1c0.7,0,1-0.3,1-1.2
		V0.8c-0.2,0-0.4,0-0.5-0.1V0.1h1.9v0.6C44.6,0.7,44.4,0.8,44.2,0.8 M38.7,1.5c0-0.2-0.1-0.4-0.1-0.6h-0.8v3.5
		c0.2,0,0.4,0.1,0.6,0.1v0.6h-2.2V4.5c0.2,0,0.4-0.1,0.6-0.1V0.9h-0.8c0,0.2-0.1,0.4-0.1,0.6h-0.7V0.1h4v1.4H38.7z M33.1,0.8
		c-0.1,0-0.3,0-0.4,0v1.4c0.1,0,0.2,0,0.3,0C33.7,2.3,34,2,34,1.6C34,1.1,33.7,0.8,33.1,0.8 M34.1,5.1L32.9,3h-0.1v1.4
		c0.1,0,0.3,0,0.4,0.1v0.6h-2V4.5c0.2,0,0.4-0.1,0.6-0.1V0.8c-0.2,0-0.4-0.1-0.6-0.1V0.1h0.6c0.2,0,0.9,0,1.5,0
		c1.1,0,1.8,0.4,1.8,1.4c0,0.7-0.5,1.2-1.2,1.4c0.1,0.1,0.2,0.2,0.3,0.4l0.8,1.2c0.1,0,0.3,0,0.5,0.1v0.6H34.1z M28.5,0.9
		c-0.7,0-1.3,0.5-1.3,1.7c0,1.1,0.4,1.7,1.3,1.7c0.6,0,1.3-0.5,1.3-1.7C29.8,1.5,29.3,0.9,28.5,0.9 M28.4,5.1c-1.5,0-2.2-1-2.2-2.5
		C26.2,1,27.3,0,28.6,0c1.3,0,2.3,0.8,2.3,2.5C30.8,4.1,29.8,5.1,28.4,5.1 M23.8,0.8c-0.1,0-0.2,0-0.3,0v1.7c0.1,0,0.2,0,0.3,0
		c0.6,0,1-0.3,1-0.9C24.8,1.2,24.5,0.8,23.8,0.8 M23.8,3.3c-0.1,0-0.2,0-0.3,0v1.1c0.2,0,0.4,0.1,0.6,0.1v0.6h-2.2V4.5
		c0.2,0,0.4-0.1,0.6-0.1V0.8c-0.2,0-0.4-0.1-0.6-0.1V0.1h0.6c0.2,0,0.9,0,1.4,0c1.2,0,1.9,0.6,1.9,1.5C25.7,2.6,25,3.3,23.8,3.3"/>
	<path class="st0" d="M7.1,0.2C2.7,1.9,0,6.5,0,13.6v10.7c0,0,0.9-6.9,7.1-8.9V0.2z"/>
	<path class="st0" d="M9.2,16.5c-2.5,0.5-6.2,2.6-7.3,5.4c5.4-6.7,16.5-0.2,17-12.7C19,5.2,19,0.4,19,0.4c-5.8,0.3-9.9,1.9-9.9,1.9
		V16.5z"/>
	<path class="st0" d="M8.5,20.1c0,0-5.9,0.5-6.4,3.9c-0.4,2.7,6.4,2.7,6.4,2.7V20.1z"/>
</g>
</svg>
